<?xml version="1.0" encoding="utf-8"?>
<!-- Generator: Adobe Illustrator 23.0.1, SVG Export Plug-In . SVG Version: 6.00 Build 0)  -->
<svg version="1.1" id="レイヤー_1" xmlns="http://www.w3.org/2000/svg" xmlns:xlink="http://www.w3.org/1999/xlink" x="0px"
	 y="0px" viewBox="0 0 277 44.8" style="enable-background:new 0 0 277 44.8;" xml:space="preserve">
<style type="text/css">
	.st0{fill:#F692AB;}
	.st1{fill:#F2706E;}
	.st2{fill:#FFAC74;}
	.st3{fill:#F3F75F;}
	.st4{fill:#A3DEA2;}
	.st5{fill:#5AC2D7;}
	.st6{fill:#B4A4DB;}
	.st7{fill:#7BCED9;}
	.st8{fill:#95D3E0;}
	.st9{fill:#B5D788;}
	.st10{fill:#5AC2E0;}
	.st11{fill:#B0A7D1;}
	.st12{fill:#F094AE;}
	.st13{fill:#EA5844;}
	.st14{fill:#F5A547;}
	.st15{fill:#FFF462;}
</style>
<title>アセット 44</title>
<g>
	<g id="header">
		<path class="st0" d="M50.5,38.3c0.1-0.5,0.2-1.1,0.5-1.5c0.4-0.6,0.8-1.3,1.2-1.9c0.4-0.6,0.9-1.3,1.3-2c0.3-0.6,0.5-1.2,0.6-1.8
			c0-0.1,0-0.2-0.1-0.4c0-0.1-0.1-0.2-0.3-0.2h-2.2c-0.1,0-0.2,0-0.2-0.1c-0.1-0.1-0.2-0.1-0.3-0.2c-0.1-0.1-0.2-0.2-0.2-0.3
			c0-0.1-0.1-0.1-0.1-0.2c0-0.1,0-0.1,0-0.2c0-0.1,0.1-0.2,0.1-0.3c0.1-0.1,0.1-0.2,0.2-0.2c0.1-0.1,0.1-0.1,0.2-0.1h3
			c0.2,0,0.3-0.1,0.4-0.2c0.1-0.2,0.2-0.3,0.3-0.5c0.1-0.2,0.2-0.4,0.2-0.6s0.1-0.3,0.1-0.4s0-0.2,0.1-0.4s0.1-0.3,0.2-0.5
			s0.1-0.4,0.1-0.5s0.1-0.3,0.1-0.4c0.1-0.2,0.2-0.4,0.3-0.4c0.2,0,0.3-0.1,0.5-0.1c0.2,0,0.4,0.1,0.5,0.2c0.2,0.1,0.3,0.3,0.3,0.5
			c0,0,0,0.1,0,0.1c0,0.1,0,0.2-0.1,0.3c0,0.2-0.1,0.4-0.1,0.6s-0.1,0.4-0.1,0.6c0,0.1-0.1,0.2-0.1,0.3v0.3c0,0.4,0.2,0.6,0.7,0.6
			H58h0.3l0.5-0.1c0.2,0,0.3-0.1,0.5-0.1l0.3,0h0.1c0.2,0,0.3,0.1,0.5,0.2c0.1,0.1,0.2,0.3,0.2,0.4c0,0.2-0.1,0.5-0.3,0.6
			c-0.2,0.1-0.4,0.2-0.7,0.3l-0.9,0.1c-0.4,0.1-0.7,0.2-1.1,0.3c-0.9,0.3-1.5,1-1.8,1.9c-0.1,0.1-0.1,0.3-0.2,0.5s-0.2,0.5-0.3,0.7
			s-0.2,0.4-0.3,0.6c-0.1,0.1-0.1,0.2-0.1,0.3c-0.1,0.1-0.2,0.3-0.2,0.4l-0.3,0.7l-0.4,0.7c-0.1,0.2-0.2,0.4-0.3,0.5
			s-0.2,0.4-0.3,0.7c-0.1,0.3-0.3,0.6-0.5,0.9c-0.2,0.3-0.4,0.5-0.6,0.8c-0.2,0.2-0.4,0.3-0.7,0.3c-0.2,0-0.4-0.1-0.6-0.2
			C50.6,38.8,50.5,38.5,50.5,38.3z M55.7,40c0-0.6,0.2-1.2,0.6-1.6c0.4-0.4,0.9-0.7,1.5-0.8c0.6-0.2,1.2-0.3,1.8-0.3
			c0.5,0,1.1,0,1.6,0c0.1,0,0.1,0,0.2-0.1l0.1-0.1l0.2-0.2v-5c0,0,0.1-0.1,0.1-0.1c0.1-0.1,0.1-0.1,0.2-0.1c0.1,0,0.2-0.1,0.2-0.1
			l0.2-0.1h0.1c0.1,0,0.3,0.1,0.4,0.2c0.1,0.1,0.2,0.2,0.3,0.3l0.1,0.2c0.1,0.1,0.1,0.1,0.1,0.1v4.9c0,0.3,0.1,0.6,0.4,0.9
			c0.3,0.2,0.6,0.4,0.9,0.5c0.4,0.1,0.8,0.3,1.1,0.4c0.4,0.1,0.8,0.2,1.2,0.4c0.3,0.1,0.6,0.3,0.9,0.5c0.2,0.2,0.4,0.5,0.3,0.8
			c0,0.2-0.1,0.4-0.3,0.5c-0.2,0.1-0.4,0.1-0.6,0.2h-0.2H67L64.3,40h-0.2c-0.2,0-0.3,0.1-0.4,0.2c-0.1,0.2-0.2,0.4-0.2,0.6
			c-0.1,0.2-0.2,0.5-0.3,0.8c-0.1,0.3-0.3,0.5-0.5,0.8c-0.3,0.3-0.6,0.4-0.9,0.6c-0.5,0.2-1,0.3-1.5,0.2c-0.5,0-1,0-1.5-0.1
			c-0.5-0.1-1-0.2-1.5-0.5c-0.4-0.2-0.8-0.5-1.1-0.9C55.8,41.2,55.7,40.6,55.7,40z M57.4,40c0,0.3,0.1,0.5,0.3,0.7
			c0.2,0.2,0.4,0.4,0.6,0.5c0.3,0.1,0.5,0.2,0.8,0.2c0.2,0,0.5,0.1,0.8,0.1c0.5,0,1-0.1,1.4-0.3c0.4-0.3,0.6-0.8,0.6-1.3
			c0-0.2-0.1-0.5-0.2-0.7c-0.1-0.2-0.3-0.3-0.5-0.4c-0.2-0.1-0.4-0.1-0.7-0.1h-0.7c-0.2,0-0.4,0-0.7,0c-0.3,0-0.5,0.1-0.8,0.2
			c-0.2,0.1-0.5,0.2-0.7,0.4C57.4,39.5,57.3,39.8,57.4,40z M63.3,29c0-0.1,0-0.1,0-0.2c0-0.2,0.1-0.4,0.2-0.5
			c0.2-0.1,0.4-0.2,0.6-0.2c0.4,0,0.8,0.1,1.2,0.4c0.5,0.2,0.9,0.5,1.3,0.9c0.4,0.3,0.7,0.7,1.1,1.1c0.2,0.3,0.4,0.6,0.4,1
			c0,0.2-0.1,0.5-0.2,0.6c-0.2,0.1-0.4,0.2-0.6,0.2H67c-0.1-0.1-0.3-0.3-0.6-0.5L65.5,31l-0.9-0.8c-0.3-0.2-0.5-0.4-0.6-0.5
			l-0.2-0.1c-0.1-0.1-0.2-0.1-0.2-0.2l-0.2-0.2L63.3,29z"/>
		<path class="st1" d="M77.4,38.3c0.1-0.5,0.3-1.1,0.6-1.5c0.4-0.6,0.8-1.3,1.2-1.9s0.9-1.4,1.3-2c0.3-0.6,0.5-1.2,0.5-1.9
			c0-0.1,0-0.2-0.1-0.4c0-0.1-0.1-0.2-0.3-0.2h-2.2c-0.1,0-0.2,0-0.2-0.1c-0.1-0.1-0.2-0.2-0.3-0.2c-0.1-0.1-0.2-0.2-0.2-0.3
			c0-0.1-0.1-0.1-0.1-0.2c0-0.1,0-0.1,0.1-0.2c0-0.1,0.1-0.2,0.1-0.3c0.1-0.1,0.1-0.2,0.2-0.2c0.1-0.1,0.1-0.1,0.2-0.1h3
			c0.2,0,0.3-0.1,0.4-0.2c0.1-0.1,0.2-0.3,0.3-0.5c0.1-0.2,0.2-0.4,0.2-0.6s0.1-0.3,0.1-0.4s0-0.2,0.1-0.4s0.1-0.3,0.1-0.5
			s0.1-0.4,0.2-0.5s0.1-0.3,0.1-0.4c0.1-0.2,0.2-0.4,0.3-0.4c0.2,0,0.3-0.1,0.5-0.1c0.2,0,0.4,0.1,0.6,0.2c0.2,0.1,0.3,0.3,0.3,0.5
			c0,0,0,0.1,0,0.1c0,0.1,0,0.2-0.1,0.3c0,0.2-0.1,0.4-0.1,0.6s-0.1,0.4-0.1,0.6c0,0.1-0.1,0.2-0.1,0.3v0.3c0,0.4,0.2,0.6,0.7,0.6
			h0.2h0.3l0.5-0.1c0.2,0,0.3-0.1,0.5-0.1l0.3,0h0.1c0.2,0,0.3,0.1,0.5,0.2c0.1,0.1,0.2,0.3,0.2,0.4c0,0.2-0.1,0.5-0.3,0.6
			c-0.2,0.1-0.4,0.2-0.7,0.3l-0.9,0.1c-0.4,0.1-0.7,0.2-1.1,0.3c-0.4,0.2-0.7,0.4-1,0.6c-0.4,0.4-0.6,0.8-0.8,1.3
			c-0.1,0.1-0.1,0.3-0.2,0.5S82.1,33,82,33.2s-0.2,0.4-0.3,0.6c-0.1,0.1-0.1,0.2-0.1,0.3c-0.1,0.1-0.2,0.3-0.2,0.4l-0.3,0.7
			l-0.4,0.7c-0.1,0.2-0.2,0.3-0.3,0.5c-0.1,0.2-0.2,0.4-0.3,0.7c-0.1,0.3-0.3,0.6-0.5,0.9c-0.2,0.3-0.4,0.5-0.6,0.8
			c-0.2,0.2-0.4,0.3-0.7,0.3c-0.2,0-0.4-0.1-0.6-0.2C77.5,38.8,77.4,38.5,77.4,38.3z M82.6,40c0-0.6,0.2-1.2,0.6-1.6
			c0.4-0.4,0.9-0.7,1.4-0.8c0.6-0.2,1.2-0.3,1.8-0.3c0.5,0,1.1,0,1.6,0c0.1,0,0.1,0,0.2-0.1l0.1-0.1l0.2-0.2v-5c0,0,0-0.1,0.1-0.1
			l0.2-0.1c0.1,0,0.2-0.1,0.2-0.1l0.2-0.1h0.1c0.1,0,0.3,0.1,0.3,0.2c0.1,0.1,0.2,0.2,0.3,0.3l0.1,0.2c0.1,0.1,0.1,0.1,0.1,0.1v4.9
			c0,0.3,0.1,0.6,0.3,0.9c0.3,0.2,0.6,0.4,0.9,0.5c0.4,0.1,0.8,0.3,1.2,0.4c0.4,0.1,0.8,0.2,1.2,0.4c0.3,0.1,0.6,0.3,0.9,0.5
			c0.2,0.2,0.4,0.5,0.4,0.8c0,0.2-0.1,0.4-0.3,0.5c-0.2,0.1-0.4,0.1-0.6,0.2h-0.2h-0.2L91.2,40H91c-0.2,0-0.3,0.1-0.4,0.2
			c-0.1,0.2-0.2,0.4-0.2,0.6c-0.1,0.3-0.2,0.5-0.3,0.8c-0.1,0.3-0.3,0.5-0.5,0.8c-0.3,0.3-0.6,0.4-0.9,0.6c-0.5,0.2-1,0.3-1.6,0.2
			c-0.5,0-1,0-1.5-0.1c-0.5-0.1-1-0.2-1.5-0.5c-0.4-0.2-0.8-0.5-1.1-0.9C82.7,41.2,82.6,40.6,82.6,40z M84.3,40
			c0,0.3,0.1,0.5,0.3,0.7c0.2,0.2,0.4,0.4,0.6,0.5c0.3,0.1,0.5,0.2,0.8,0.2c0.2,0,0.5,0.1,0.8,0.1c0.5,0,1-0.1,1.4-0.3
			c0.4-0.3,0.6-0.8,0.6-1.3c0-0.2,0-0.5-0.2-0.7c-0.1-0.2-0.3-0.3-0.5-0.4c-0.2-0.1-0.4-0.1-0.7-0.1h-0.7c-0.2,0-0.4,0-0.7,0
			c-0.3,0-0.5,0.1-0.8,0.2c-0.2,0.1-0.5,0.2-0.7,0.4C84.3,39.5,84.2,39.8,84.3,40z M90.2,29c0-0.1,0-0.1,0-0.2
			c0-0.2,0.1-0.4,0.2-0.5c0.2-0.1,0.4-0.2,0.6-0.2c0.4,0,0.8,0.1,1.2,0.4c0.5,0.2,0.9,0.5,1.3,0.9c0.4,0.3,0.8,0.7,1.1,1.1
			c0.2,0.3,0.4,0.6,0.4,1c0,0.2-0.1,0.5-0.2,0.6c-0.2,0.1-0.4,0.2-0.6,0.2h-0.2c-0.1-0.1-0.3-0.3-0.6-0.5L92.4,31
			c-0.3-0.3-0.6-0.5-0.9-0.8l-0.6-0.5l-0.2-0.1l-0.2-0.2l-0.2-0.2L90.2,29z"/>
		<path class="st2" d="M104.9,29.8v-1c0-0.2,0-0.4,0-0.6s0-0.3,0-0.4s0.1-0.4,0.3-0.4c0.2,0,0.4-0.1,0.5-0.1c0.1,0,0.3,0,0.4,0
			c0.1,0,0.2,0.1,0.3,0.4c0,0.1,0,0.3,0,0.6s0,0.6,0,0.9s0,0.6,0.1,0.9c0,0.2,0,0.4,0,0.6c0,0.3,0,0.6,0.1,1.2s0.1,1.1,0.2,1.8
			s0.2,1.3,0.3,2c0.1,0.6,0.3,1.3,0.5,1.9c0.2,0.5,0.4,1,0.7,1.4c0.2,0.3,0.6,0.5,1,0.5c0.4,0,0.8-0.2,1-0.5
			c0.2-0.3,0.4-0.7,0.5-1.1c0.2-0.4,0.3-0.8,0.5-1.1c0.1-0.3,0.4-0.5,0.8-0.5c0.3,0,0.5,0.1,0.6,0.3c0.1,0.2,0.2,0.4,0.2,0.7
			c0,0.5-0.1,0.9-0.3,1.3c-0.2,0.5-0.5,1-0.8,1.4c-0.3,0.4-0.7,0.8-1.1,1.1c-0.4,0.3-0.8,0.4-1.3,0.4c-0.7,0-1.3-0.2-1.8-0.7
			c-0.5-0.5-1-1.1-1.3-1.8c-0.4-0.8-0.6-1.6-0.8-2.5c-0.2-0.9-0.3-1.8-0.5-2.7s-0.2-1.7-0.2-2.5S104.9,30.3,104.9,29.8z M120,36.9
			c0-0.1-0.1-0.2-0.2-0.5s-0.2-0.5-0.3-0.7l-0.3-0.7l-0.2-0.5c-0.2-0.4-0.4-0.8-0.7-1.2l-1-1.4c-0.3-0.5-0.6-0.9-0.8-1.4
			c-0.2-0.4-0.3-0.8-0.3-1.2c0-0.2,0.1-0.4,0.3-0.5c0.2-0.1,0.4-0.2,0.6-0.2c0.4,0,0.7,0.2,0.9,0.5c0.4,0.4,0.7,0.9,1,1.4
			c0.4,0.5,0.7,1.2,1.1,1.8c0.3,0.7,0.7,1.3,0.9,1.8s0.5,1.1,0.7,1.5c0.1,0.3,0.2,0.5,0.3,0.8c0,0.3-0.1,0.5-0.3,0.7
			c-0.2,0.2-0.4,0.3-0.7,0.3c-0.1,0-0.1,0-0.2-0.1l-0.2-0.2c-0.1-0.1-0.1-0.1-0.2-0.2L120,36.9z"/>
		<path class="st3" d="M135.3,41.9c0-0.1,0-0.3,0.2-0.4c0.1-0.1,0.3-0.1,0.4-0.1l1.6-0.1c0.6,0,1.2-0.1,1.9-0.2
			c0.6-0.1,1.3-0.2,1.9-0.4c0.6-0.2,1.1-0.4,1.6-0.7c0.5-0.3,0.9-0.7,1.2-1.2c0.3-0.5,0.5-1.1,0.4-1.7c0-0.1,0-0.2,0-0.5
			s0-0.4,0-0.4c-0.3-0.7-0.7-1.3-1.4-1.6c-0.7-0.3-1.4-0.5-2.1-0.5c-0.6,0-1.2,0.1-1.8,0.2c-0.6,0.2-1.2,0.4-1.7,0.6
			c-0.6,0.2-1.1,0.5-1.7,0.8c-0.5,0.3-1.1,0.7-1.5,1L134,37l-0.5,0.4c-0.2,0.1-0.4,0.3-0.6,0.3c-0.1,0.1-0.3,0.2-0.5,0.2
			c-0.3,0-0.5-0.1-0.6-0.3c-0.2-0.2-0.3-0.4-0.3-0.7c0,0,0,0,0-0.1c0-0.1,0.1-0.2,0.1-0.3c0.5-0.5,1.1-1.1,1.8-1.7s1.4-1.3,2.1-2
			s1.4-1.5,2.1-2.2c0.6-0.7,1.2-1.4,1.7-2.2l0.1-0.2c0,0,0-0.1,0.1-0.1v-0.1c0-0.1-0.1-0.1-0.1-0.2h-0.7c-0.8,0-1.6,0.1-2.4,0.2
			s-1.6,0.2-2.4,0.2c-0.3,0-0.5-0.1-0.7-0.3c-0.1-0.2-0.2-0.5-0.2-0.7c0-0.2,0.2-0.4,0.5-0.6c0.4-0.2,0.9-0.3,1.4-0.4
			c0.6-0.1,1.1-0.2,1.8-0.2l1.9-0.1l1.7-0.1h1.1c0.3,0,0.6,0.1,0.9,0.3c0.2,0.2,0.4,0.5,0.4,0.8c0,0.1,0,0.2,0,0.3
			c0,0.1,0,0.2-0.1,0.2l-0.2,0.2l-0.3,0.3l-0.7,0.8l-1.2,1.2l-1.1,1.3l-0.7,0.8c-0.1,0.2-0.2,0.3-0.1,0.3s0,0.1,0,0.3
			c0.5,0,1.1,0,1.6-0.1c0.5-0.1,1.1-0.1,1.6-0.1c0.7,0,1.3,0.1,1.9,0.3c0.6,0.2,1.2,0.5,1.7,0.8c1,0.8,1.6,2,1.6,3.3
			c0,0.7-0.1,1.5-0.5,2.1c-0.3,0.6-0.7,1.1-1.3,1.6c-0.6,0.4-1.2,0.8-1.8,1.1c-0.7,0.3-1.4,0.5-2.1,0.7c-0.7,0.2-1.5,0.3-2.2,0.3
			c-0.7,0.1-1.4,0.1-2,0.1c-0.3,0-0.6-0.1-0.8-0.3C135.5,42.5,135.3,42.2,135.3,41.9z"/>
		<path class="st4" d="M156.4,38.2c0-0.7,0.2-1.4,0.4-2.1c0.1-0.3,0.3-0.6,0.6-0.9c0.2-0.2,0.5-0.4,0.9-0.4c0.2,0,0.4,0.1,0.5,0.2
			c0.1,0.1,0.2,0.3,0.2,0.5c0,0.1,0,0.1,0,0.2c-0.2,0.2-0.3,0.4-0.4,0.6c-0.1,0.1-0.2,0.3-0.2,0.4c0,0.1-0.1,0.3-0.1,0.5
			c0,0.2,0,0.3,0,0.5c0,0.6,0.2,1.3,0.7,1.7c0.5,0.4,1.1,0.7,1.7,0.8c0.7,0.2,1.4,0.2,2.1,0.3h1.8c0.9,0,1.7-0.1,2.6-0.2
			c0.8-0.1,1.7-0.2,2.5-0.2c0.2,0,0.5,0,0.6,0.2c0.1,0.2,0.2,0.4,0.2,0.6c0,0.3-0.1,0.5-0.4,0.7c-0.3,0.2-0.6,0.3-0.9,0.4
			c-0.4,0.1-0.8,0.2-1.3,0.2c-0.5,0-0.9,0-1.3,0s-0.8,0-1.2,0h-0.8h-1.5c-0.6,0-1.2-0.1-1.7-0.2c-0.6-0.1-1.2-0.2-1.8-0.4
			c-0.5-0.2-1.1-0.4-1.5-0.7c-0.4-0.3-0.8-0.7-1.1-1.1C156.5,39.3,156.3,38.8,156.4,38.2z M162.4,30.6c0-0.3,0.1-0.6,0.4-0.8
			l0.7-0.6c0,0,0-0.1,0-0.1c0-0.1,0-0.2-0.1-0.3c-0.1-0.1-0.1-0.1-0.3-0.1h-4.4c-0.1,0-0.2,0-0.2-0.1c-0.1-0.1-0.1-0.1-0.2-0.2
			c-0.1-0.1-0.1-0.2-0.1-0.3c0-0.1,0-0.2,0-0.3c0-0.1,0-0.3,0.1-0.4c0-0.1,0.1-0.2,0.2-0.3c1.6,0,3.1,0,4.6,0s2.9-0.1,4.5-0.1h0.6
			c0.2,0.1,0.4,0.2,0.4,0.3c0,0.2,0.1,0.3,0.1,0.5c0,0.1-0.1,0.3-0.4,0.5c-0.3,0.2-0.6,0.5-0.9,0.7c-0.4,0.3-0.8,0.5-1.3,0.8
			s-0.9,0.5-1.3,0.7l-1.1,0.6c-0.2,0.1-0.4,0.2-0.5,0.2c-0.2,0-0.3,0-0.5-0.1C162.4,31,162.4,30.8,162.4,30.6L162.4,30.6z"/>
		<path class="st5" d="M179.9,38.5c0-0.5,0.1-1.1,0.4-1.6c0.2-0.5,0.6-0.9,0.9-1.3c0.4-0.4,0.7-0.8,1.2-1.1l1.2-0.9
			c0.3-0.2,0.6-0.5,0.9-0.8c0.2-0.1,0.3-0.4,0.4-0.6c0-0.5-0.1-1-0.3-1.5c-0.2-0.5-0.4-1-0.6-1.5s-0.4-1-0.6-1.5
			c-0.2-0.5-0.3-1.1-0.3-1.6c0-0.5,0.3-0.8,0.8-0.8c0.2,0,0.3,0,0.5,0.1c0.2,0.1,0.3,0.2,0.3,0.4c0,0.1,0.1,0.3,0.1,0.5
			s0.1,0.5,0.2,0.8s0.2,0.6,0.2,0.8s0.1,0.4,0.1,0.5s0.1,0.2,0.1,0.5s0.2,0.5,0.3,0.8s0.2,0.6,0.3,0.8s0.2,0.5,0.2,0.6
			c0.1,0.4,0.4,0.6,0.8,0.6h0.2l0.7-0.2l1.1-0.4l1.1-0.4l0.7-0.2l0.7-0.2c0.2-0.1,0.4-0.1,0.6-0.1c0.2,0,0.5,0.1,0.7,0.3
			c0.2,0.2,0.3,0.4,0.3,0.6c0,0.3-0.3,0.5-0.9,0.8s-1.3,0.5-2.1,0.8l-2.8,0.9c-0.9,0.3-1.9,0.7-2.8,1.2c-0.8,0.4-1.5,1-2.1,1.6
			c-0.6,0.6-0.9,1.4-0.9,2.2c0,0.6,0.2,1.1,0.7,1.5c0.5,0.4,1,0.6,1.6,0.8c0.6,0.2,1.3,0.3,1.9,0.3c0.6,0,1.2,0.1,1.6,0.1
			c0.9,0,1.7-0.1,2.6-0.2c0.9-0.1,1.7-0.2,2.6-0.2h0.7c0.3,0.2,0.4,0.5,0.4,0.8c0,0.2-0.2,0.5-0.4,0.6c-0.3,0.2-0.6,0.3-1,0.4
			c-0.4,0.1-0.9,0.1-1.3,0.2c-0.5,0-0.9,0-1.4,0h-1.2h-0.8h-1.5c-0.6,0-1.1-0.1-1.7-0.2c-0.6-0.1-1.1-0.2-1.7-0.4
			c-0.5-0.2-1-0.4-1.5-0.7c-0.4-0.3-0.7-0.7-1-1.1C180,39.7,179.9,39.1,179.9,38.5z M191.3,26.7c0-0.2,0.1-0.4,0.3-0.5
			c0.1-0.1,0.3-0.2,0.5-0.2h0.3l0.5,0.4c0.2,0.2,0.4,0.3,0.5,0.5c0.2,0.2,0.3,0.4,0.5,0.6c0.1,0.2,0.2,0.4,0.2,0.6
			c0,0.2-0.1,0.4-0.2,0.5c-0.2,0.1-0.3,0.2-0.5,0.2c-0.2,0-0.5-0.1-0.6-0.3c-0.2-0.2-0.5-0.4-0.6-0.6c-0.2-0.2-0.3-0.5-0.5-0.8
			C191.4,27.1,191.3,26.9,191.3,26.7z M193.5,25.3c0-0.2,0.1-0.3,0.2-0.5c0.1-0.1,0.3-0.2,0.4-0.2c0.2,0,0.5,0.1,0.7,0.2
			c0.2,0.2,0.5,0.4,0.6,0.6c0.2,0.2,0.4,0.5,0.5,0.7c0.1,0.2,0.2,0.4,0.2,0.6c0,0.2-0.1,0.4-0.2,0.5c-0.1,0.1-0.3,0.2-0.5,0.2
			c-0.2,0-0.4-0.1-0.6-0.2c-0.2-0.2-0.4-0.4-0.6-0.6c-0.2-0.2-0.4-0.5-0.5-0.7C193.6,25.7,193.6,25.5,193.5,25.3L193.5,25.3z"/>
		<path class="st6" d="M204.8,34.4c0-0.2,0.1-0.4,0.2-0.5c0.1-0.2,0.4-0.2,0.6-0.2h0.2l0.3,0.1h0.3h0.2h1.5c0.2-0.1,0.3-0.2,0.4-0.4
			c0.1-0.2,0.2-0.4,0.2-0.6c0-0.2,0-0.4,0-0.6c0-0.2,0-0.4,0-0.6V31c-0.1-0.2-0.3-0.3-0.6-0.4c-0.3-0.1-0.5-0.1-0.8-0.1
			c-0.3,0-0.6,0-1,0c-0.3,0-0.6,0-0.9-0.1c-0.2,0-0.5-0.1-0.7-0.3c-0.2-0.2-0.3-0.4-0.3-0.6c0-0.2,0.1-0.4,0.3-0.5
			c0.2-0.1,0.3-0.2,0.5-0.2c0.4,0,0.8,0,1.2,0.1c0.4,0.1,0.8,0.1,1.3,0.1h0.9c0.2,0,0.4-0.2,0.5-0.4c0.1-0.2,0.2-0.5,0.2-0.8
			c0-0.3,0.1-0.6,0.1-0.9c0-0.3,0-0.6,0.1-0.9c0-0.3,0.1-0.5,0.3-0.7c0.2-0.2,0.4-0.3,0.6-0.3c0.2,0,0.4,0.1,0.6,0.3
			c0.2,0.1,0.3,0.3,0.3,0.5c0,0.4-0.1,0.8-0.2,1.3c-0.1,0.4-0.2,0.8-0.2,1.2c0,0.1,0,0.1,0,0.2c0,0.1,0,0.2,0,0.2
			c0,0.1,0,0.1,0.1,0.2c0.1,0.1,0.1,0.1,0.2,0.1h4.1c0.1,0,0.2,0.1,0.2,0.2c0,0.1,0.1,0.2,0.1,0.4c0,0.2,0,0.3-0.2,0.5
			c-0.1,0.1-0.2,0.2-0.4,0.3c-0.2,0.1-0.3,0.1-0.5,0.1l-0.5,0.1h-0.6l-1,0.1l-1,0.1c-0.3,0-0.5,0-0.7,0.1c-0.2,0.1-0.3,0.3-0.4,0.5
			c-0.1,0.2-0.2,0.4-0.2,0.7c0,0.2-0.1,0.5-0.1,0.8v0.6c0,0.1,0,0.3,0,0.4c0,0.1,0.2,0.2,0.4,0.3h0.8c0.5,0,1,0,1.5-0.1
			c0.4-0.1,0.9-0.1,1.4-0.1c0.2,0,0.4,0,0.6,0.2c0.2,0.1,0.2,0.3,0.2,0.5c0,0.3-0.1,0.5-0.4,0.7c-0.3,0.2-0.7,0.2-1,0.3
			c-0.4,0-0.8,0-1.3,0c-0.4,0-0.8,0-1.3,0.1c-0.3,0-0.7,0.1-1,0.2c-0.2,0.1-0.4,0.3-0.4,0.6v2.8c0,0.4,0.1,0.8,0.4,1.2
			c0.3,0.3,0.6,0.6,1,0.7c0.4,0.2,0.8,0.3,1.2,0.4c0.4,0.1,0.8,0.1,1.2,0.1c1,0.1,2.1-0.2,2.9-0.8c0.7-0.7,1.1-1.7,1-2.8
			c0-0.4,0-0.8-0.1-1.1c-0.1-0.4-0.1-0.7-0.1-1.1c0-0.2,0.1-0.4,0.2-0.6c0.2-0.2,0.4-0.2,0.6-0.2c0.3,0,0.6,0.1,0.7,0.4
			c0.2,0.3,0.3,0.6,0.3,0.9c0.1,0.3,0.1,0.7,0.1,1V38c0,0.8-0.1,1.5-0.4,2.3c-0.3,0.6-0.7,1.2-1.2,1.6c-0.5,0.4-1.1,0.8-1.8,1
			c-0.7,0.2-1.5,0.3-2.3,0.3c-0.5,0-1.1-0.1-1.6-0.2c-0.6-0.1-1.2-0.3-1.8-0.6c-0.5-0.3-1-0.6-1.4-1.1c-0.4-0.4-0.6-1-0.6-1.6v-3.9
			c0-0.2-0.2-0.3-0.5-0.4l-1.1-0.2c-0.4-0.1-0.8-0.1-1.1-0.3C205,35,204.8,34.7,204.8,34.4z"/>
		<path class="st7" d="M229.8,31.8c0-0.1,0.1-0.2,0.1-0.3c0-0.1,0-0.2,0-0.3c0-0.2-0.1-0.3-0.3-0.4c-0.2-0.1-0.4-0.1-0.6-0.1
			c-0.2,0-0.4-0.1-0.6-0.1c-0.2-0.1-0.3-0.3-0.3-0.5c0-0.2,0-0.3,0.1-0.5c0-0.2,0.2-0.3,0.4-0.3h2.8l0.3-0.4
			c0.1-0.1,0.1-0.2,0.2-0.3v-2.5c0-0.1,0-0.1,0.1-0.2l0.3-0.1c0.1,0,0.2-0.1,0.3-0.1c0.1,0,0.1,0,0.2,0c0.1,0,0.2,0,0.3,0.1
			c0.1,0.1,0.2,0.2,0.3,0.4c0,0.1,0,0.2,0,0.4c0,0.3,0,0.5,0,0.8c0,0.3,0,0.6,0.1,0.9c0,0.3,0.1,0.5,0.2,0.7c0,0,0,0,0.1,0.1
			l0.1,0.1l0.2,0.1c0,0,0.1,0,0.1,0h2.5c0.1,0,0.2-0.1,0.3-0.1c0.1-0.1,0.2-0.2,0.2-0.3v-4c0-0.2,0.1-0.4,0.3-0.6
			c0.2-0.1,0.4-0.2,0.6-0.2c0.2,0,0.4,0.1,0.6,0.3c0.1,0.2,0.2,0.4,0.2,0.6c0,0.2,0.1,0.4,0.1,0.6c0,0.2,0.2,0.3,0.4,0.3h5.1
			c0.2,0,0.4,0.1,0.5,0.3c0.1,0.1,0.2,0.3,0.3,0.5c0,0.1,0,0.3-0.1,0.4c-0.1,0.1-0.2,0.2-0.4,0.2h-5.2c-0.1,0-0.2,0-0.3,0.1
			c-0.1,0.1-0.2,0.2-0.2,0.3c0,0.1-0.1,0.2-0.1,0.4c-0.1,0.2-0.1,0.4,0,0.5c0,0.1,0.1,0.2,0.1,0.4c0,0.1,0.1,0.2,0.2,0.3
			c0.1,0.1,0.2,0.1,0.3,0.1h8c0.2,0,0.3,0.1,0.4,0.3c0.1,0.1,0.1,0.3,0.1,0.5c0,0.2-0.1,0.4-0.3,0.5c-0.2,0.1-0.4,0.1-0.6,0.1
			c-0.2,0-0.4,0-0.6,0.1c-0.2,0-0.3,0.2-0.3,0.3c0,0.1,0,0.2,0,0.3c0,0.1,0.1,0.3,0.1,0.4v11.5c0,0.2-0.1,0.3-0.3,0.4
			c-0.2,0-0.3,0.1-0.5,0.1c-0.1,0-0.3,0-0.4-0.1c-0.1-0.1-0.2-0.2-0.3-0.3c-0.1-0.1-0.2-0.2-0.3-0.3c-0.1-0.1-0.3-0.1-0.4-0.1h-12.1
			c-0.1,0-0.3,0-0.4,0.1c-0.1,0.1-0.2,0.2-0.3,0.3l-0.3,0.3c-0.1,0.1-0.2,0.1-0.4,0.1c-0.2,0-0.3,0-0.4-0.1
			c-0.2-0.1-0.3-0.2-0.3-0.4L229.8,31.8z M231.2,31.6c0,0.2,0,0.5,0,0.9s0,0.9,0,1.4s0,1.1,0,1.7s0,1.1,0,1.7s0,1,0,1.4s0,0.7,0,0.9
			v1.2c0,0.1,0,0.1,0.1,0.2c0,0.1,0,0.2,0.1,0.3c0,0.1,0.1,0.2,0.1,0.2c0,0.1,0.1,0.1,0.2,0.1h5.3c0,0,0.1,0,0.1,0l0.2-0.1l0.1-0.1
			c0,0,0,0,0.1-0.1c0-0.1,0-0.4,0-0.7c0-0.3,0-0.7-0.1-1c0-0.3-0.1-0.6-0.2-0.9c-0.1-0.3-0.3-0.4-0.5-0.4h-0.2l-0.7,0.7
			c-0.3,0.3-0.6,0.6-0.9,0.9c-0.3,0.3-0.6,0.5-1,0.8c-0.3,0.2-0.6,0.3-1,0.3c-0.3,0-0.6-0.2-0.6-0.5c0,0,0-0.1,0-0.2
			c0-0.2,0.1-0.5,0.3-0.7c0.2-0.2,0.4-0.4,0.7-0.6c0.3-0.2,0.6-0.4,0.9-0.5c0.3-0.1,0.6-0.3,0.9-0.5c0.2-0.2,0.5-0.4,0.6-0.6
			c0.2-0.2,0.2-0.5,0.2-0.7c0-0.1-0.1-0.2-0.1-0.2c-0.1-0.1-0.1-0.1-0.2-0.1h-2.8c-0.2,0-0.3-0.1-0.4-0.3c-0.1-0.1-0.1-0.3-0.1-0.4
			c0-0.3,0.1-0.4,0.3-0.5c0.2-0.1,0.4-0.1,0.7-0.1c0.2,0,0.5,0,0.7-0.1c0.2,0,0.3-0.2,0.3-0.5c0-0.2-0.1-0.4-0.1-0.5
			c-0.1-0.2-0.2-0.3-0.3-0.5c-0.1-0.2-0.2-0.3-0.3-0.5c-0.1-0.2-0.2-0.3-0.1-0.5c0-0.1,0-0.3,0.1-0.4c0.1-0.1,0.3-0.2,0.4-0.2
			c0.4,0,0.8,0.1,1,0.5c0.2,0.3,0.4,0.6,0.5,1c0.1,0.3,0.2,0.7,0.4,1c0.1,0.3,0.4,0.5,0.7,0.5c0.2,0,0.4-0.1,0.6-0.1
			c0.2-0.1,0.4-0.2,0.4-0.5v-2.7c0.1-0.1,0.1-0.1,0.1-0.2c0.1-0.1,0.1-0.2,0.1-0.2c0,0,0,0,0-0.1c0-0.1-0.1-0.2-0.3-0.3
			c-0.1,0-0.2-0.1-0.3-0.1h-5.3c-0.1,0-0.2,0-0.4,0.1c-0.2,0-0.3,0.1-0.3,0.3v0.1l0.1,0.2C231,31.4,231.1,31.5,231.2,31.6
			L231.2,31.6z M238.4,41.2c0,0.1,0.1,0.2,0.2,0.3c0.1,0.1,0.2,0.1,0.3,0.1h5.3c0,0,0.1,0,0.1,0l0.2-0.1l0.1-0.1
			c0.1,0,0.1-0.1,0.1-0.1V32l0.1-0.2l0.1-0.3l0.1-0.3c0-0.1,0.1-0.1,0.1-0.2c0,0,0,0,0-0.1c0-0.1-0.1-0.2-0.3-0.3
			c-0.1,0-0.2-0.1-0.4-0.1H239c-0.1,0-0.2,0-0.4,0.1c-0.2,0-0.3,0.1-0.3,0.3v0.1c0,0.1,0.1,0.2,0.1,0.2l0.1,0.2v2.7
			c0,0.2,0.1,0.4,0.3,0.5c0.2,0.1,0.3,0.1,0.5,0.2c0.3,0,0.6-0.2,0.8-0.5c0.2-0.3,0.3-0.7,0.5-1.1c0.1-0.4,0.3-0.7,0.5-1.1
			c0.2-0.3,0.5-0.5,0.9-0.5c0.2,0,0.4,0.1,0.5,0.2c0.1,0.2,0.1,0.3,0.1,0.5v0.3l-0.2,0.3c-0.1,0.1-0.2,0.3-0.3,0.4l-0.3,0.4
			c-0.1,0.1-0.1,0.2-0.2,0.3c0,0.1-0.1,0.2-0.1,0.3c0,0.1,0,0.2,0,0.2c-0.1,0.2,0,0.4,0.2,0.4c0,0,0.1,0,0.1,0
			c0.2,0,0.5,0.1,0.7,0.1c0.2,0,0.5,0,0.7,0.1c0.2,0.1,0.4,0.3,0.3,0.5c0,0.1-0.1,0.3-0.1,0.4c-0.1,0.1-0.2,0.2-0.3,0.2h-3.7
			c-0.1,0-0.1,0-0.2,0.2c0,0.1,0,0.1,0,0.2c0,0.2,0.1,0.4,0.3,0.5c0.2,0.2,0.5,0.3,0.8,0.5l1,0.4c0.4,0.2,0.7,0.3,1,0.5
			c0.3,0.1,0.5,0.3,0.8,0.5c0.2,0.1,0.3,0.4,0.3,0.6c0,0.2-0.1,0.3-0.2,0.5c-0.1,0.1-0.3,0.2-0.5,0.2c-0.3,0-0.7-0.2-0.9-0.4
			c-0.3-0.2-0.6-0.4-0.9-0.7c-0.3-0.2-0.6-0.5-0.9-0.7c-0.3-0.2-0.6-0.3-1-0.3c-0.2,0-0.5,0.1-0.6,0.3c-0.1,0.2-0.2,0.5-0.3,0.8
			c-0.1,0.3-0.1,0.6-0.1,0.9C238.4,40.7,238.4,41,238.4,41.2L238.4,41.2z"/>
		<path class="st7" d="M260.8,35.5c-0.2,0-0.3,0.1-0.4,0.3c-0.2,0.2-0.3,0.5-0.4,0.7c-0.1,0.3-0.3,0.6-0.4,1c-0.1,0.3-0.3,0.7-0.5,1
			c-0.1,0.3-0.3,0.5-0.5,0.8c-0.1,0.2-0.4,0.3-0.6,0.3c-0.2,0-0.4-0.1-0.5-0.3c-0.1-0.2-0.2-0.4-0.2-0.5c0-0.6,0.2-1.2,0.5-1.6
			c0.4-0.5,0.7-1,1.1-1.6c0.4-0.5,0.8-1,1.1-1.6c0.3-0.5,0.5-1.1,0.5-1.7c0-0.1,0-0.2,0-0.3c-0.1-0.1-0.1-0.2-0.3-0.2h-0.6
			c-0.3,0-0.6,0-0.9,0c-0.3,0-0.6-0.1-0.9-0.2c-0.2-0.1-0.4-0.3-0.5-0.5v-0.1c0-0.1,0-0.2,0.1-0.3c0.1-0.1,0.1-0.2,0.2-0.2
			c0.1,0,0.1-0.1,0.2-0.1c0.1,0,0.1-0.1,0.1-0.1h2.8c0.1,0,0.2-0.1,0.3-0.2c0.1-0.1,0.1-0.3,0.1-0.5c0-0.2,0-0.3,0-0.5v-0.3
			c0-0.1,0-0.3,0-0.4c0-0.1,0-0.3-0.1-0.4c0-0.1-0.1-0.3-0.2-0.4c-0.1-0.1-0.3-0.1-0.4-0.1c-0.3,0-0.6,0-0.8,0.1
			c-0.3,0.1-0.5,0.1-0.8,0.1c-0.2,0-0.4,0-0.7-0.1c-0.2-0.1-0.3-0.2-0.3-0.5c0-0.1,0-0.3,0.1-0.4c0.1-0.1,0.2-0.2,0.4-0.2
			c0.9-0.2,1.9-0.5,2.9-0.7c1-0.3,1.9-0.6,2.9-0.9h0.2c0.2,0,0.4,0.1,0.6,0.2c0.2,0.1,0.3,0.3,0.4,0.5c0,0.3-0.1,0.5-0.4,0.6
			c-0.3,0.1-0.6,0.2-0.9,0.3c-0.3,0.1-0.6,0.2-0.9,0.3c-0.2,0.1-0.4,0.3-0.4,0.6v2.4l0.5,0.5h2.2c0.1,0,0.2,0.1,0.4,0.3
			c0.1,0.1,0.2,0.2,0.2,0.4c0,0.3-0.1,0.5-0.4,0.6c-0.3,0.1-0.6,0.2-0.9,0.3c-0.3,0-0.6,0-1,0h-0.6c-0.2,0.1-0.3,0.2-0.4,0.3
			c0,0.1-0.1,0.3-0.1,0.4c0,0.1,0,0.3,0,0.4c0,0.1,0.1,0.3,0.1,0.4l2.6,2.7c0,0,0,0,0.1,0.1l0.1,0.2v0.1c0,0.2-0.1,0.5-0.2,0.6
			c-0.1,0.1-0.3,0.2-0.5,0.2h-0.1h-0.1l-1.3-1.3h-0.2c-0.1,0-0.2,0-0.3,0c-0.1,0-0.2,0.1-0.2,0.3v7.4c0,0.2-0.1,0.3-0.3,0.4
			c-0.2,0.1-0.3,0.1-0.5,0.1h-0.4c-0.1,0-0.3-0.1-0.3-0.3c0,0,0,0,0,0V36c0-0.1-0.1-0.2-0.1-0.3C261,35.5,260.9,35.5,260.8,35.5z
			 M271.7,38.3h-0.5l-4.8,0.9h-0.1c-0.2,0-0.4-0.1-0.5-0.2c-0.1-0.1-0.2-0.3-0.2-0.5c0-0.2,0.1-0.4,0.2-0.6c0.2-0.1,0.4-0.2,0.6-0.3
			l5.2-1l0.3-0.1c0.1,0,0.2-0.1,0.3-0.2c0.1-0.1,0.2-0.1,0.3-0.2c0.1-0.1,0.1-0.2,0.1-0.3v-11c0-0.2,0.1-0.3,0.3-0.4
			c0.2,0,0.3-0.1,0.5-0.1c0.1,0,0.3,0,0.4,0c0.1,0,0.2,0.1,0.3,0.2c0,0,0,0,0,0v10.6l0.2,0.3l0.3,0.3h2.1c0.1,0,0.2,0.1,0.3,0.2
			c0.1,0.1,0.1,0.2,0.1,0.4c0,0.3-0.2,0.6-0.5,0.7c-0.3,0.1-0.7,0.2-1,0.3c-0.4,0.1-0.7,0.1-1,0.2c-0.3,0-0.5,0.3-0.5,0.5v5
			c0,0.1,0,0.2-0.1,0.2c-0.1,0.1-0.2,0.1-0.2,0.2l-0.3,0.1c-0.1,0-0.1,0.1-0.2,0.1c-0.1,0-0.2,0-0.2-0.1c-0.1-0.1-0.2-0.1-0.3-0.2
			c-0.1-0.1-0.2-0.2-0.2-0.2c-0.1-0.1-0.1-0.1-0.1-0.2v-4.4c0-0.1,0-0.1-0.1-0.2c-0.1-0.1-0.2-0.1-0.2-0.1h-0.3L271.7,38.3z
			 M266.9,31.8c0-0.2,0.1-0.3,0.2-0.4c0.2-0.1,0.3-0.1,0.5-0.1h0.3c0.1,0,0.1,0,0.2,0.1c0.1,0,0.1,0.1,0.2,0.1l0.3,0.3
			c0.1,0.1,0.2,0.2,0.4,0.4l0.6,0.6l0.6,0.6c0.2,0.2,0.3,0.3,0.4,0.4c0,0.1,0.1,0.1,0.1,0.2c0,0.1,0,0.1,0,0.2
			c0,0.2-0.1,0.4-0.2,0.5c-0.1,0.1-0.3,0.2-0.5,0.2c-0.1,0-0.2,0-0.2,0c-0.1,0-0.2-0.1-0.2-0.1l-2.4-2.4c-0.1-0.1-0.1-0.2-0.1-0.2
			C266.9,32,266.9,31.9,266.9,31.8z M267.4,27c0-0.2,0.1-0.4,0.2-0.5c0.1-0.1,0.3-0.2,0.5-0.2c0.3,0,0.6,0.1,0.9,0.3
			c0.4,0.2,0.7,0.5,1,0.8c0.3,0.3,0.6,0.6,0.8,1c0.2,0.2,0.3,0.5,0.3,0.9c0,0.2-0.1,0.4-0.2,0.5c-0.1,0.1-0.3,0.2-0.5,0.2
			c-0.1,0-0.2,0-0.2,0c-0.1-0.1-0.2-0.2-0.4-0.4l-0.7-0.6l-0.7-0.6c-0.2-0.2-0.4-0.3-0.5-0.4l-0.4-0.4
			C267.4,27.4,267.3,27.2,267.4,27L267.4,27z"/>
		<path class="st7" d="M51.1,12.9c0-0.1,0-0.1,0.1-0.2c0,0,0-0.1,0-0.1c0-0.1,0-0.2-0.1-0.2l-0.3-0.1c-0.1,0-0.2,0-0.3-0.1
			c-0.1,0-0.1-0.1-0.1-0.2c0-0.1,0-0.1,0-0.2c0-0.1,0.1-0.1,0.2-0.1h1.4l0.1-0.2c0,0,0.1-0.1,0.1-0.1v-1.2c0,0,0-0.1,0.1-0.1
			l0.1-0.1l0.1-0.1c0,0,0.1,0,0.1,0c0,0,0.1,0,0.2,0c0.1,0.1,0.1,0.1,0.1,0.2v0.2c0,0.1,0,0.3,0,0.4c0,0.1,0,0.3,0,0.4
			c0,0.1,0,0.2,0.1,0.4l0,0l0,0h0.1H53h1.2c0.1,0,0.1,0,0.2-0.1c0.1-0.1,0.1-0.1,0.1-0.1V9.5c0-0.1,0.1-0.2,0.1-0.3
			c0.1-0.1,0.2-0.1,0.3-0.1c0.1,0,0.2,0,0.3,0.1c0.1,0.1,0.1,0.2,0.1,0.3c0,0.1,0,0.2,0.1,0.3c0,0.1,0.1,0.1,0.2,0.1H58
			c0.1,0,0.2,0.1,0.3,0.1c0.1,0.1,0.1,0.1,0.1,0.2c0,0.1,0,0.1-0.1,0.2c0,0.1-0.1,0.1-0.2,0.1h-2.4c0,0-0.1,0-0.1,0.1
			c0,0-0.1,0.1-0.1,0.1c0,0.1,0,0.1,0,0.2c0,0,0,0.1,0,0.1c0,0,0,0.1,0,0.1c0,0.1,0,0.1,0,0.2l0.1,0.1c0,0,0.1,0.1,0.1,0.1h3.9
			c0.1,0,0.2,0,0.2,0.1c0,0.1,0,0.1,0,0.2c0,0.1,0,0.2-0.1,0.2c-0.1,0-0.2,0-0.3,0.1L59,12.4c-0.1,0-0.1,0.1-0.1,0.2
			c0,0.1,0,0.1,0,0.2c0,0.1,0,0.1,0.1,0.2v5.6c0,0.1,0,0.2-0.1,0.2c0,0,0,0,0,0c-0.1,0-0.2,0-0.2,0c-0.1,0-0.1,0-0.2-0.1l-0.2-0.1
			l-0.2-0.1c-0.1,0-0.1-0.1-0.2-0.1h-5.8c-0.1,0-0.1,0-0.2,0.1l-0.1,0.1l-0.2,0.1c-0.1,0-0.1,0.1-0.2,0.1c-0.1,0-0.1,0-0.2,0
			c-0.1,0-0.1-0.1-0.1-0.2L51.1,12.9z M51.7,12.8c0,0.1,0,0.3,0,0.4s0,0.4,0,0.7s0,0.5,0,0.8s0,0.6,0,0.8s0,0.5,0,0.7s0,0.4,0,0.5
			v0.6c0,0,0,0.1,0,0.1c0,0,0,0.1,0,0.1c0,0,0,0.1,0.1,0.1c0,0,0.1,0,0.1,0h2.6h0.1l0.1,0l0,0l0,0v-0.4c0-0.2,0-0.3,0-0.5
			c0-0.2-0.1-0.3-0.1-0.4c0-0.1-0.1-0.2-0.2-0.2h-0.1l-0.3,0.3l-0.5,0.4c-0.2,0.1-0.3,0.3-0.5,0.4c-0.1,0.1-0.3,0.1-0.5,0.1
			c-0.2,0-0.3-0.1-0.3-0.3c0-0.1,0.1-0.2,0.1-0.3c0.1-0.1,0.2-0.2,0.3-0.3c0.1-0.1,0.3-0.2,0.4-0.3c0.2-0.1,0.3-0.2,0.4-0.3
			c0.1-0.1,0.2-0.2,0.3-0.3c0.1-0.1,0.1-0.2,0.1-0.3c0,0,0-0.1-0.1-0.1c0-0.1-0.1-0.1-0.1-0.1h-1.2c-0.1,0-0.1-0.1-0.2-0.1
			c0-0.1-0.1-0.1-0.1-0.2c0-0.1,0-0.2,0.2-0.2h0.3c0.1,0,0.2,0,0.3,0c0.1,0,0.2-0.1,0.1-0.2c0-0.1,0-0.2-0.1-0.3
			c0-0.1-0.1-0.1-0.2-0.2l-0.2-0.2c0-0.1-0.1-0.2-0.1-0.3c0-0.1,0-0.1,0.1-0.2c0-0.1,0.1-0.2,0.2-0.2c0.2,0,0.4,0.1,0.5,0.2
			c0.1,0.2,0.2,0.3,0.2,0.5c0,0.2,0.1,0.3,0.2,0.5c0,0.1,0.2,0.2,0.3,0.2c0.1,0,0.2,0,0.3-0.1c0.1,0,0.2-0.1,0.2-0.2v-1.3
			c0,0,0-0.1,0.1-0.1v-0.1l0,0c0-0.1,0-0.1-0.1-0.1c-0.1,0-0.1,0-0.2,0h-2.5c-0.1,0-0.1,0-0.2,0c-0.1,0-0.1,0.1-0.1,0.1l0,0
			C51.6,12.7,51.6,12.7,51.7,12.8C51.7,12.8,51.7,12.8,51.7,12.8z M55.2,17.5c0,0,0,0.1,0.1,0.1c0,0,0.1,0,0.1,0H58h0.1l0.1,0h0.1
			l0,0V13c0,0,0-0.1,0-0.1v-0.1l0.1-0.1c0,0,0-0.1,0-0.1l0,0c0-0.1,0-0.1-0.1-0.1H58h-2.5c-0.1,0-0.1,0-0.2,0
			c-0.1,0-0.1,0.1-0.1,0.1l0,0l0.1,0.1l0.1,0.1v1.3c0,0.1,0.1,0.2,0.2,0.2c0.1,0,0.2,0.1,0.3,0.1c0.2,0,0.3-0.1,0.4-0.2
			c0.1-0.2,0.2-0.3,0.2-0.5c0.1-0.2,0.2-0.4,0.3-0.5c0.1-0.2,0.2-0.2,0.4-0.2c0.1,0,0.2,0,0.2,0.1c0,0.1,0,0.2,0,0.3v0.1l-0.1,0.1
			l-0.1,0.2l-0.1,0.2l0,0.1l-0.1,0.1c0,0,0,0.1,0,0.1c0,0.1,0.1,0.2,0.2,0.2c0.1,0,0.2,0,0.3,0c0.1,0,0.2,0,0.3,0
			c0.1,0,0.2,0.1,0.2,0.3c0,0.1,0,0.1-0.1,0.2c0,0.1-0.1,0.1-0.2,0.1h-1.8c0,0-0.1,0-0.1,0.1c0,0,0,0.1,0,0.1c0,0.1,0.1,0.2,0.2,0.3
			c0.1,0.1,0.2,0.2,0.4,0.2c0.2,0.1,0.3,0.1,0.5,0.2c0.2,0.1,0.3,0.1,0.5,0.2c0.1,0.1,0.3,0.1,0.4,0.3c0.1,0.1,0.1,0.2,0.2,0.3
			c0,0.2-0.2,0.3-0.3,0.3c-0.2,0-0.3-0.1-0.5-0.1c-0.1-0.1-0.3-0.2-0.4-0.3c-0.1-0.1-0.3-0.2-0.4-0.3C56,16.1,55.9,16,55.7,16
			c-0.1,0-0.2,0.1-0.3,0.2c-0.1,0.1-0.1,0.2-0.1,0.4c0,0.1,0,0.3,0,0.5C55.2,17.3,55.2,17.4,55.2,17.5z"/>
		<path class="st7" d="M64.3,16.2c0-0.3,0.1-0.5,0.2-0.8c0.1-0.2,0.3-0.5,0.4-0.6c0.2-0.2,0.4-0.4,0.6-0.6l0.6-0.5
			c0.2-0.1,0.3-0.2,0.4-0.4c0.1-0.1,0.2-0.2,0.2-0.3c0-0.3,0-0.5-0.1-0.8c-0.1-0.2-0.2-0.5-0.3-0.7s-0.2-0.5-0.3-0.8
			c-0.1-0.2-0.1-0.5-0.1-0.8c0-0.2,0.1-0.4,0.3-0.4c0,0,0.1,0,0.1,0c0.1,0,0.2,0,0.2,0c0.1,0,0.1,0.1,0.2,0.2s0,0.1,0.1,0.3
			s0.1,0.3,0.1,0.4s0.1,0.3,0.1,0.4s0.1,0.2,0.1,0.2c0,0.1,0,0.2,0.1,0.2c0,0.1,0.1,0.3,0.1,0.4s0.1,0.3,0.1,0.4s0.1,0.2,0.1,0.3
			c0,0.2,0.2,0.3,0.4,0.3H68l0.3-0.1l0.5-0.2l0.5-0.2l0.3-0.1l0.3-0.1c0.1,0,0.2,0,0.3,0c0.1,0,0.2,0,0.3,0.1
			c0.1,0.1,0.2,0.2,0.2,0.3c0,0.1-0.1,0.3-0.4,0.4s-0.6,0.2-1,0.4L68,13.7c-0.5,0.2-0.9,0.3-1.3,0.6c-0.4,0.2-0.7,0.5-1,0.8
			c-0.3,0.3-0.4,0.7-0.4,1c0,0.3,0.1,0.5,0.3,0.7c0.2,0.2,0.5,0.3,0.8,0.4c0.3,0.1,0.6,0.1,0.9,0.1H68c0.4,0,0.8,0,1.3-0.1
			c0.4-0.1,0.8-0.1,1.3-0.1h0.3c0.1,0.1,0.2,0.2,0.2,0.4c0,0.1-0.1,0.2-0.2,0.3c-0.1,0.1-0.3,0.1-0.5,0.2c-0.2,0-0.4,0.1-0.6,0.1
			h-0.7h-0.9h-0.7c-0.3,0-0.6,0-0.8-0.1c-0.3,0-0.6-0.1-0.8-0.2c-0.3-0.1-0.5-0.2-0.7-0.4c-0.2-0.1-0.4-0.3-0.5-0.5
			C64.4,16.7,64.4,16.5,64.3,16.2z"/>
		<path class="st7" d="M80.3,17.9c0-0.1,0.1-0.3,0.2-0.4c0.1-0.1,0.3-0.3,0.5-0.5l0.5-0.5c0.1-0.1,0.3-0.3,0.4-0.4l0.1-0.2
			c0-0.1,0.1-0.2,0.1-0.3l0.1-0.3c0-0.1,0.1-0.1,0.1-0.2c0,0,0,0,0-0.1v-0.1c0-0.2-0.1-0.3-0.3-0.4c-0.2-0.1-0.4-0.2-0.6-0.3
			c-0.2-0.1-0.5-0.1-0.7-0.2c-0.2,0-0.3-0.1-0.5-0.1c-0.2,0-0.3,0.1-0.4,0.2l-0.4,0.9c-0.2,0.4-0.4,0.7-0.6,1.1
			c-0.2,0.3-0.5,0.6-0.7,0.9c-0.2,0.2-0.6,0.4-0.9,0.4c-0.2,0-0.4,0-0.5-0.1c-0.2-0.1-0.3-0.2-0.4-0.4c-0.1-0.2-0.2-0.3-0.2-0.5
			c-0.1-0.2-0.1-0.4-0.1-0.5c0-0.3,0-0.7,0.2-1c0.1-0.2,0.3-0.4,0.5-0.6c0.2-0.2,0.4-0.3,0.7-0.4l0.8-0.3c0.3-0.1,0.5-0.2,0.7-0.3
			c0.2-0.1,0.5-0.2,0.7-0.4c0.2-0.2,0.4-0.4,0.5-0.7c0.1-0.3,0.2-0.7,0.2-1.1v-0.1c0,0,0-0.1,0-0.1c0,0,0-0.1,0-0.1c0,0,0,0-0.1,0
			h-0.3c-0.3,0-0.6,0-0.9,0.1c-0.3,0.1-0.6,0.1-0.9,0.1c-0.1,0-0.2,0-0.3-0.1c-0.1-0.1-0.1-0.2-0.1-0.3c0-0.1,0-0.1,0-0.2
			c0-0.1,0.1-0.1,0.2-0.1l1.3-0.2c0.5-0.1,0.9-0.1,1.4-0.1c0.2,0,0.3,0,0.5,0.1c0.1,0.1,0.2,0.3,0.2,0.4c0,0.2,0,0.4-0.1,0.6
			c0,0.2-0.1,0.4-0.2,0.6c-0.1,0.2-0.1,0.4-0.2,0.6s-0.1,0.4-0.2,0.5v0.1c0,0.2,0.1,0.3,0.2,0.4c0.2,0.1,0.4,0.2,0.6,0.3
			c0.2,0.1,0.4,0.1,0.7,0.1h0.5c0.1,0,0.3-0.1,0.3-0.2c0.1-0.1,0.1-0.3,0.1-0.4c0-0.2,0-0.3,0-0.5c0-0.1,0-0.2,0-0.4
			c0-0.1,0.1-0.1,0.2-0.2c0.1,0,0.1-0.1,0.2-0.1c0,0,0.1,0,0.1,0c0,0,0.1,0.1,0.1,0.1l0.1,0.1h0.1v0.4c0,0.2,0,0.4,0,0.6
			s0,0.4,0,0.6c0,0.2,0.1,0.3,0.2,0.4c0.1,0.1,0.3,0.2,0.5,0.3c0.2,0.1,0.3,0.2,0.5,0.3c0.1,0.1,0.2,0.3,0.2,0.4
			c0,0.3-0.1,0.4-0.4,0.4h-0.2l-0.7-0.4h-0.3c-0.1,0-0.1,0-0.1,0.1s-0.2,0.4-0.4,0.7c-0.2,0.3-0.3,0.6-0.5,0.9
			c-0.2,0.3-0.4,0.5-0.7,0.8c-0.2,0.2-0.5,0.3-0.8,0.3c-0.1,0-0.2,0-0.3-0.1C80.4,18.1,80.3,18,80.3,17.9z M76.6,16
			c0,0.1,0,0.2,0,0.2c0,0.1,0,0.2,0.1,0.2c0,0.1,0.1,0.1,0.1,0.2c0.1,0.1,0.2,0.1,0.2,0.1c0.2,0,0.4-0.1,0.5-0.3
			c0.2-0.2,0.4-0.4,0.6-0.7c0.2-0.2,0.3-0.5,0.4-0.8c0.1-0.2,0.2-0.4,0.2-0.6c0-0.1,0-0.2-0.1-0.2h-0.2c-0.2,0-0.4,0-0.7,0.1
			c-0.2,0.1-0.4,0.2-0.6,0.4c-0.2,0.2-0.3,0.3-0.4,0.6C76.7,15.6,76.6,15.8,76.6,16z"/>
		<path class="st7" d="M92.8,14.5c-0.2,0-0.4,0.1-0.6,0.2c-0.2,0.1-0.4,0.3-0.6,0.5c-0.2,0.2-0.4,0.5-0.5,0.7
			c-0.2,0.2-0.3,0.5-0.5,0.8c-0.2,0.3-0.3,0.5-0.4,0.7L89.9,18c0,0.1-0.1,0.1-0.1,0.1c-0.1,0-0.1,0-0.2,0c-0.1,0-0.2,0-0.3-0.1
			c-0.1-0.1-0.1-0.2-0.1-0.3c0-0.1,0-0.1,0-0.2c0-0.1,0-0.1,0.1-0.2l0.2-0.5l0.3-0.6c0.1-0.2,0.2-0.4,0.3-0.6s0.1-0.3,0.2-0.3
			s0.1-0.3,0.2-0.5s0.3-0.5,0.4-0.8l0.5-1l0.5-1l0.4-0.9c0.1-0.3,0.2-0.5,0.3-0.6s0.1-0.2,0.1-0.2c0-0.1,0.1-0.2,0.1-0.3
			C92.9,10,92.9,10,93,9.9c0.1-0.1,0.2-0.1,0.3-0.1c0.1,0,0.2,0,0.3,0.1c0.1,0.1,0.2,0.2,0.2,0.3c0,0.2-0.1,0.4-0.2,0.6
			c-0.1,0.2-0.2,0.4-0.3,0.6l-0.4,0.6c-0.1,0.2-0.2,0.4-0.3,0.5c-0.1,0.1-0.1,0.2-0.2,0.3l-0.2,0.4L92,13.6c0,0,0,0.1-0.1,0.1v0.2
			c0.2,0,0.4,0,0.6-0.1c0.2-0.1,0.4-0.1,0.6-0.1c0.3,0,0.6,0.1,0.8,0.3c0.2,0.2,0.3,0.4,0.4,0.7c0.1,0.3,0.1,0.6,0.1,0.9
			c0,0.3,0,0.6,0.1,0.9c0,0.2,0.1,0.5,0.2,0.7c0.1,0.2,0.3,0.3,0.5,0.3c0.2,0,0.4,0,0.5-0.1c0.2-0.1,0.3-0.2,0.4-0.4
			c0.1-0.1,0.2-0.3,0.3-0.5c0.1-0.2,0.2-0.3,0.3-0.5c0.1-0.1,0.2-0.2,0.3-0.4c0.1-0.1,0.1-0.1,0.3-0.1c0.1,0,0.2,0.1,0.3,0.2
			c0.1,0.1,0.1,0.2,0.2,0.3c0,0.3-0.1,0.6-0.3,0.8c-0.2,0.3-0.4,0.5-0.7,0.8c-0.2,0.2-0.5,0.4-0.8,0.6c-0.3,0.1-0.5,0.2-0.8,0.2
			c-0.3,0-0.7-0.1-0.9-0.3c-0.2-0.2-0.3-0.4-0.4-0.7c-0.1-0.3-0.1-0.6-0.1-0.9c0-0.3,0-0.6-0.1-0.9c0-0.2-0.1-0.5-0.2-0.7
			C93.3,14.6,93,14.5,92.8,14.5z"/>
		<path class="st7" d="M102.6,16.1c0-0.3,0.1-0.5,0.3-0.7c0.2-0.3,0.4-0.6,0.6-0.9s0.4-0.7,0.6-1c0.2-0.3,0.3-0.6,0.3-0.9
			c0,0,0-0.1,0-0.2c0-0.1-0.1-0.1-0.1-0.1h-1.1c0,0-0.1,0-0.1,0c0,0-0.1-0.1-0.1-0.1c0,0-0.1-0.1-0.1-0.1c0,0,0-0.1,0-0.1
			c0,0,0-0.1,0-0.1l0.1-0.1c0,0,0.1-0.1,0.1-0.1c0,0,0.1-0.1,0.1-0.1h1.4c0.1,0,0.1,0,0.2-0.1c0.1-0.1,0.1-0.2,0.2-0.3
			c0-0.1,0.1-0.2,0.1-0.3l0.1-0.2c0-0.1,0-0.1,0-0.2c0-0.1,0-0.2,0.1-0.3c0-0.1,0-0.2,0.1-0.3c0-0.1,0-0.1,0-0.2
			c0-0.1,0.1-0.2,0.2-0.2c0.1,0,0.2,0,0.2,0c0.1,0,0.2,0,0.3,0.1c0.1,0.1,0.1,0.1,0.1,0.3l0,0c0,0.1,0,0.1,0,0.2
			c0,0.1-0.1,0.2-0.1,0.3s0,0.2-0.1,0.3s0,0.1,0,0.2V11c0,0.2,0.1,0.3,0.3,0.3h0.1h0.2h0.3l0.3-0.1h0.2l0,0c0.1,0,0.2,0,0.2,0.1
			c0.1,0,0.1,0.1,0.1,0.2c0,0.1,0,0.2-0.1,0.3c-0.1,0.1-0.2,0.1-0.3,0.1l-0.5,0.1c-0.2,0-0.3,0.1-0.5,0.1c-0.2,0.1-0.3,0.2-0.5,0.3
			c-0.2,0.1-0.3,0.3-0.4,0.5l-0.1,0.3l-0.1,0.3c0,0.1-0.1,0.2-0.1,0.3l-0.1,0.1c0,0.1-0.1,0.1-0.1,0.2l-0.2,0.3l-0.2,0.4
			c0,0.1-0.1,0.2-0.1,0.3c0,0.1-0.1,0.2-0.2,0.4c-0.1,0.2-0.1,0.3-0.2,0.4c-0.1,0.1-0.2,0.3-0.3,0.4c-0.1,0.1-0.2,0.2-0.3,0.2
			c-0.1,0-0.2,0-0.3-0.1C102.6,16.3,102.5,16.2,102.6,16.1z M105.1,16.9c0-0.3,0.1-0.6,0.3-0.8c0.2-0.2,0.4-0.3,0.7-0.4
			c0.3-0.1,0.6-0.1,0.9-0.2c0.3,0,0.6,0,0.8,0h0.1h0.1l0.1-0.1V13c0,0,0,0,0-0.1l0.1-0.1l0.1-0.1h0.1l0,0c0.1,0,0.1,0,0.2,0.1
			l0.2,0.1l0.1,0.1v0.1v2.4c0,0.2,0.1,0.3,0.2,0.4c0.1,0.1,0.3,0.2,0.4,0.3c0.2,0.1,0.4,0.1,0.6,0.2c0.2,0,0.4,0.1,0.6,0.2
			c0.2,0.1,0.3,0.1,0.4,0.3c0.1,0.1,0.2,0.2,0.2,0.4c0,0.1,0,0.2-0.1,0.3c-0.1,0.1-0.2,0.1-0.3,0.1h-0.2l-1.3-0.7H109
			c-0.1,0-0.2,0-0.2,0.1c0,0.1-0.1,0.2-0.1,0.3c0,0.1-0.1,0.2-0.1,0.4c-0.1,0.1-0.1,0.3-0.3,0.4c-0.1,0.1-0.3,0.2-0.4,0.3
			c-0.2,0.1-0.5,0.1-0.8,0.1c-0.2,0-0.5,0-0.7-0.1c-0.3,0-0.5-0.1-0.7-0.2c-0.2-0.1-0.4-0.3-0.6-0.5C105.1,17.5,105,17.2,105.1,16.9
			z M105.9,16.9c0,0.1,0,0.3,0.1,0.4c0.1,0.1,0.2,0.2,0.3,0.2c0.1,0.1,0.3,0.1,0.4,0.1h0.4c0.2,0,0.5,0,0.7-0.2
			c0.2-0.1,0.3-0.4,0.3-0.6c0-0.1,0-0.2-0.1-0.3c-0.1-0.1-0.1-0.1-0.2-0.2c-0.1,0-0.2-0.1-0.3-0.1h-0.3h-0.3c-0.1,0-0.3,0.1-0.4,0.1
			c-0.1,0-0.2,0.1-0.3,0.2C105.9,16.6,105.9,16.8,105.9,16.9z M108.8,11.6c0,0,0-0.1,0-0.1c0-0.1,0-0.2,0.1-0.3
			c0.1-0.1,0.2-0.1,0.3-0.1c0.2,0,0.4,0.1,0.6,0.2c0.2,0.1,0.4,0.3,0.6,0.4c0.2,0.2,0.4,0.3,0.5,0.5c0.1,0.1,0.2,0.3,0.2,0.5
			c0,0.1,0,0.2-0.1,0.3c-0.1,0.1-0.2,0.1-0.3,0.1h-0.1c-0.1-0.1-0.2-0.2-0.3-0.2l-0.4-0.4l-0.4-0.4l-0.3-0.3l-0.1-0.1l-0.1-0.1
			L108.8,11.6L108.8,11.6z"/>
		<path class="st7" d="M120.4,17.5c0,0,0-0.1,0-0.1c0,0,0.1-0.1,0.1-0.1c0.4-0.1,0.8-0.2,1.2-0.4c0.4-0.2,0.7-0.4,1-0.6
			c0.3-0.3,0.5-0.6,0.7-0.9c0.2-0.4,0.3-0.8,0.3-1.3c0-0.3-0.1-0.7-0.2-1c-0.1-0.3-0.3-0.6-0.5-0.9c-0.2-0.3-0.5-0.5-0.8-0.6
			c-0.3-0.2-0.7-0.3-1-0.3c-0.1,0-0.2,0.2-0.3,0.5s-0.2,0.7-0.3,1.2s-0.2,1-0.4,1.6c-0.1,0.5-0.3,1-0.6,1.5
			c-0.2,0.4-0.4,0.8-0.8,1.2c-0.3,0.3-0.7,0.5-1.1,0.5c-0.3,0-0.6-0.1-0.8-0.3c-0.2-0.2-0.4-0.5-0.6-0.7c-0.2-0.3-0.3-0.6-0.3-0.9
			c-0.1-0.3-0.1-0.6-0.1-0.9c0-0.6,0.1-1.2,0.4-1.8c0.3-0.5,0.6-1,1.1-1.4c0.4-0.4,1-0.7,1.5-0.9c0.6-0.2,1.2-0.3,1.8-0.3
			c0.5,0,1,0.1,1.5,0.3c0.5,0.2,0.9,0.4,1.3,0.7c0.4,0.3,0.7,0.7,0.9,1.1c0.2,0.5,0.3,1,0.3,1.5c0,0.5-0.1,1-0.3,1.5
			c-0.2,0.5-0.5,0.9-0.8,1.3c-0.3,0.4-0.7,0.7-1.2,0.9c-0.5,0.2-1,0.4-1.5,0.4c-0.1,0-0.3,0-0.4-0.1
			C120.4,17.7,120.4,17.6,120.4,17.5z M116.8,14.7c0,0.1,0,0.3,0,0.6c0,0.2,0.1,0.4,0.1,0.6c0.1,0.2,0.2,0.4,0.3,0.5
			c0.1,0.1,0.3,0.2,0.5,0.2h0.2c0.3-0.3,0.6-0.6,0.8-1c0.3-0.4,0.5-0.9,0.6-1.3c0.2-0.5,0.3-0.9,0.4-1.4c0.1-0.4,0.1-0.9,0.1-1.3
			c0-0.1,0-0.2-0.1-0.3c-0.1-0.1-0.1-0.1-0.2-0.1c-0.4,0-0.8,0.1-1.2,0.3c-0.4,0.2-0.7,0.5-0.9,0.9c-0.2,0.3-0.4,0.7-0.6,1.1
			C116.9,13.9,116.8,14.3,116.8,14.7z"/>
		<path class="st7" d="M130.9,17.8l0.4-0.3c0.2-0.2,0.5-0.4,0.9-0.7s0.7-0.6,1.1-1c0.4-0.4,0.8-0.8,1.1-1.2c0.3-0.4,0.6-0.9,0.9-1.3
			c0.2-0.4,0.3-0.9,0.3-1.4c0-0.1,0-0.1,0-0.2c0-0.1-0.1-0.1-0.1-0.1h-2.7c-0.1,0-0.2,0.1-0.3,0.2c-0.1,0.2-0.3,0.3-0.4,0.5
			l-0.4,0.7c-0.1,0.2-0.3,0.5-0.5,0.7c-0.1,0.2-0.3,0.4-0.5,0.5c-0.1,0.1-0.3,0.2-0.5,0.2c-0.1,0-0.2,0-0.3-0.1
			c-0.1-0.1-0.1-0.2-0.1-0.3c0,0,0-0.1,0-0.1c0.4-0.4,0.7-0.8,1-1.1c0.3-0.4,0.6-0.8,0.9-1.2c0.1-0.2,0.2-0.3,0.2-0.5
			c0.1-0.2,0.2-0.4,0.3-0.6c0.1-0.2,0.2-0.4,0.3-0.6c0.1-0.1,0.2-0.2,0.4-0.2c0.1,0,0.2,0,0.3,0.1c0.1,0.1,0.1,0.2,0.1,0.3v0.1
			c0,0,0,0.1,0,0.1c0,0,0,0.1,0,0.1c0,0.1,0,0.1-0.1,0.1v0.1c0,0,0,0.1,0.1,0.1l0.1,0.1l0.1,0.1h2.5c0.1,0,0.1,0,0.2,0.1
			c0.1,0,0.1,0.1,0.2,0.2c0,0.1,0.1,0.1,0.1,0.2c0,0.1,0,0.1,0,0.2c0,0.5,0,1-0.2,1.4c-0.2,0.5-0.4,0.9-0.6,1.4
			c-0.3,0.4-0.6,0.9-0.9,1.3c-0.3,0.4-0.7,0.8-1.1,1.1c-0.4,0.3-0.7,0.6-1.1,0.9c-0.4,0.3-0.7,0.5-1.1,0.6h-0.1
			c-0.1,0-0.3-0.1-0.3-0.2C130.9,18.1,130.9,18,130.9,17.8z"/>
		<path class="st7" d="M142.4,10h0.1h0.1c0,0,0.1,0,0.1,0.1c0,0,0,0.1,0.1,0.1v4.3c0,0.1,0,0.1-0.1,0.1c0,0-0.1,0.1-0.1,0.1h-0.1
			h-0.1c-0.1,0-0.2,0-0.3-0.1c-0.1,0-0.2-0.1-0.1-0.2v-4.1c0-0.1,0.1-0.2,0.2-0.3C142.2,10,142.3,10,142.4,10z M143.4,18
			c0-0.1,0.1-0.2,0.2-0.3s0.4-0.3,0.6-0.5l0.6-0.5c0.1-0.1,0.3-0.2,0.4-0.4c0.1-0.2,0.3-0.3,0.4-0.5c0.1-0.2,0.2-0.4,0.2-0.7
			c0.1-0.2,0.1-0.5,0.1-0.7c0-0.2,0-0.4,0.1-0.7c0-0.1,0-0.3,0-0.4c0-0.2,0-0.4,0-0.7s0-0.5,0-0.8s0-0.5,0-0.8s0-0.5,0-0.7
			s0-0.4,0-0.4s0.1-0.2,0.2-0.2h0.2h0.3c0.1,0,0.2,0.1,0.2,0.2c0,0,0,0,0,0v4.4c0,0.3,0,0.5-0.1,0.7c-0.1,0.3-0.2,0.6-0.3,0.9
			c-0.1,0.3-0.3,0.6-0.5,0.9c-0.2,0.3-0.4,0.6-0.6,0.8c-0.2,0.2-0.4,0.4-0.7,0.6c-0.2,0.1-0.5,0.2-0.7,0.2c-0.1,0-0.2-0.1-0.3-0.2
			C143.4,18.2,143.3,18.1,143.4,18z"/>
		<path class="st7" d="M151.8,16.5L151.8,16.5l0.1-0.2l0.1-0.1c0,0,0,0,0.1,0h8.1c0,0,0.1,0,0.1,0c0,0,0.1,0.1,0.1,0.1
			c0,0,0,0.1,0,0.1c0,0,0,0.1,0,0.1c0,0,0,0.1,0,0.1c0,0,0,0.1,0,0.1c0,0,0,0.1-0.1,0.1c0,0-0.1,0-0.1,0H152c0,0-0.1,0-0.1,0
			l-0.1-0.1L151.8,16.5C151.8,16.5,151.8,16.5,151.8,16.5z M153.1,11.9c0-0.1,0-0.2,0.1-0.3c0-0.1,0.1-0.2,0.2-0.1h5.6
			c0.1,0,0.2,0.1,0.2,0.1c0,0.1,0.1,0.2,0.1,0.3c0,0.1,0,0.2,0,0.2c0,0.1-0.1,0.2-0.2,0.1h-5.7c-0.1,0-0.2-0.1-0.2-0.1
			C153.1,12,153.1,11.9,153.1,11.9z"/>
		<path class="st7" d="M164.6,12.9c0-0.1,0-0.2,0.1-0.3c0.1-0.1,0.2-0.1,0.3-0.1c0.1,0,0.3,0.1,0.4,0.2c0.1,0.1,0.2,0.3,0.3,0.5
			c0.1,0.2,0.1,0.4,0.2,0.5c0,0.1,0.1,0.3,0.1,0.4c0,0.1,0,0.2-0.1,0.3c-0.1,0.1-0.2,0.1-0.3,0.1c-0.1,0-0.3-0.1-0.3-0.2
			c-0.1-0.2-0.2-0.3-0.3-0.5c-0.1-0.2-0.1-0.4-0.2-0.6C164.6,13.1,164.6,13,164.6,12.9z M165.7,17.6c0,0,0-0.1,0-0.1
			c0,0,0-0.1,0.1-0.1c0.4-0.2,0.8-0.4,1.1-0.6c0.4-0.2,0.7-0.5,1-0.8c0.3-0.3,0.6-0.6,0.8-0.9c0.2-0.4,0.4-0.7,0.6-1.1
			c0.1-0.1,0.1-0.3,0.1-0.4c0-0.2,0.1-0.4,0.1-0.6c0-0.2,0.1-0.3,0.2-0.5c0.1-0.1,0.2-0.2,0.3-0.2c0.1,0,0.2,0,0.3,0.1
			c0.1,0.1,0.2,0.2,0.1,0.3c0,0.3-0.1,0.7-0.2,1c-0.1,0.4-0.3,0.8-0.5,1.2c-0.2,0.4-0.5,0.8-0.8,1.2c-0.3,0.4-0.6,0.7-0.9,1
			c-0.3,0.3-0.6,0.5-1,0.7c-0.3,0.2-0.6,0.3-1,0.3c-0.1,0-0.2-0.1-0.3-0.1C165.8,17.8,165.7,17.7,165.7,17.6z M166.7,12.5
			c0,0,0-0.1,0-0.1c0-0.1,0.1-0.2,0.1-0.3c0.1-0.1,0.2-0.1,0.3-0.1c0.1,0,0.3,0.1,0.3,0.2c0.1,0.1,0.2,0.3,0.3,0.4
			c0.1,0.2,0.1,0.3,0.2,0.5c0,0.1,0.1,0.3,0.1,0.4c0,0.2-0.1,0.4-0.3,0.4c0,0-0.1,0-0.1,0c-0.1,0-0.2,0-0.2-0.1
			c-0.1-0.1-0.1-0.1-0.1-0.2c0,0-0.1-0.1-0.1-0.2s-0.1-0.2-0.1-0.4s-0.1-0.3-0.1-0.4L166.7,12.5z"/>
		<path class="st7" d="M176.6,17.8l0.4-0.3c0.2-0.2,0.5-0.4,0.9-0.7s0.7-0.6,1.1-1c0.4-0.4,0.8-0.8,1.1-1.2c0.3-0.4,0.6-0.9,0.9-1.3
			c0.2-0.4,0.3-0.9,0.3-1.4c0-0.1,0-0.1,0-0.2c0-0.1-0.1-0.1-0.1-0.1h-2.7c-0.1,0-0.2,0.1-0.3,0.2c-0.1,0.2-0.3,0.3-0.4,0.5
			l-0.4,0.7c-0.2,0.2-0.3,0.5-0.5,0.7c-0.1,0.2-0.3,0.4-0.5,0.5c-0.1,0.1-0.3,0.2-0.5,0.2c-0.1,0-0.2,0-0.3-0.1
			c-0.1-0.1-0.1-0.2-0.1-0.3c0,0,0-0.1,0-0.1c0.4-0.4,0.7-0.8,1-1.1c0.3-0.4,0.6-0.8,0.9-1.2c0.1-0.2,0.2-0.3,0.2-0.5
			c0.1-0.2,0.2-0.4,0.3-0.6c0.1-0.2,0.2-0.4,0.3-0.6c0.1-0.1,0.2-0.2,0.4-0.2c0.1,0,0.2,0,0.3,0.1c0.1,0.1,0.1,0.2,0.1,0.3v0.1v0.1
			c0,0,0,0.1,0,0.1c0,0,0,0.1-0.1,0.1c0,0,0,0.1,0,0.1c0,0,0,0.1,0.1,0.1l0.1,0.1c0,0,0.1,0.1,0.1,0.1h2.6c0.1,0,0.1,0,0.2,0.1
			c0.1,0,0.1,0.1,0.2,0.2c0,0.1,0.1,0.1,0.1,0.2c0,0.1,0,0.1,0,0.2c0,0.5-0.1,1-0.3,1.4c-0.1,0.5-0.4,0.9-0.6,1.4
			c-0.3,0.5-0.5,0.9-0.9,1.3c-0.3,0.4-0.7,0.8-1.1,1.1c-0.4,0.3-0.7,0.6-1.1,0.9c-0.4,0.3-0.7,0.5-1.1,0.6h-0.1
			c-0.1,0-0.3-0.1-0.3-0.2C176.7,18.1,176.6,18,176.6,17.8z"/>
	</g>
	<g>
		<g>
			<path class="st8" d="M15.2,27.7c0.1,0.7,1.4,0.7,1.5,0s-1.3-1-1.5-0.3c0.2,0.2,0.4,0.4,0.6,0.7"/>
			<path class="st8" d="M14.8,27.8c0.2,1.3,2.6,0.9,2.2-0.5c-0.2-0.6-0.9-0.8-1.4-0.7c-0.3,0.1-0.5,0.3-0.6,0.5
				c-0.2,0.5,0.3,0.9,0.6,1.2c0.3,0.4,0.8-0.2,0.5-0.5c-0.2-0.2-0.4-0.4-0.6-0.7c0,0.1,0.1,0.2,0.1,0.4c0.1-0.3,0.7-0.2,0.7,0.1
				c0,0.3-0.7,0.3-0.8-0.1c0-0.2-0.3-0.3-0.5-0.3C14.9,27.4,14.8,27.6,14.8,27.8L14.8,27.8z"/>
		</g>
		<g>
			<path class="st8" d="M23.9,27.7c0.1,0.7,1.4,0.7,1.5,0c0.1-0.7-1.3-1-1.5-0.3c0.2,0.2,0.4,0.4,0.6,0.7"/>
			<path class="st8" d="M23.5,27.8c0.2,1.3,2.6,0.9,2.2-0.5c-0.2-0.6-0.9-0.8-1.4-0.7c-0.3,0.1-0.5,0.3-0.6,0.5
				c-0.2,0.5,0.3,0.9,0.6,1.2c0.3,0.4,0.8-0.2,0.5-0.5c-0.2-0.2-0.4-0.4-0.6-0.7c0,0.1,0.1,0.2,0.1,0.4c0.1-0.3,0.7-0.2,0.7,0.1
				c0,0.3-0.7,0.3-0.8-0.1c0-0.2-0.3-0.3-0.5-0.3C23.6,27.4,23.5,27.6,23.5,27.8L23.5,27.8z"/>
		</g>
		<g>
			<path class="st8" d="M9.8,28.7c-0.1,0-0.1,0-0.2,0c-0.2,0-0.3-0.1-0.4-0.2c-0.2-0.1-0.5-0.3-1-0.7c-0.5-0.4-1.3-1-1.6-1.1
				c-0.3-0.1-0.4-0.5-0.3-0.8c0.1-0.3,0.5-0.4,0.8-0.3c0.3,0.2,0.9,0.6,1.8,1.2c0.1,0,0.1,0.1,0.2,0.2c0-0.1,0-0.1,0-0.2
				c0-0.8,0.1-1.5,0.3-2.3c0.1-0.3,0.4-0.5,0.7-0.4c0.3,0.1,0.5,0.4,0.4,0.7c-0.2,0.7-0.2,1.4-0.2,2c0,0.3,0,0.8,0.1,1.3
				c0,0.2,0,0.4-0.2,0.5C10.1,28.6,9.9,28.7,9.8,28.7z"/>
			<path class="st8" d="M24.3,44.8c-1.2,0-2.2-0.7-2.6-1.9l-1.2-3.8c0,0,0-0.1-0.1-0.1h-0.2c0,0-0.1,0-0.1,0.1L19,42.9
				c-0.4,1.1-1.4,1.9-2.6,1.9c-1.2,0-2.2-0.7-2.5-1.8c-0.4-1.1-0.7-2.2-1.1-3.3c-1.1-3.2-2.3-6.5-3-9.2c0,0,0,0,0-0.1
				c-1.6-0.6-3.6-2-4.3-3c-0.1-0.2-0.3-0.5-0.3-0.9c0-0.1,0-0.1,0-0.2c0.1-0.6,0.6-1,1.3-1c0.2,0,0.3,0,0.5,0.1c0,0,0.1,0,0.2,0.1
				c0.3,0.1,0.4,0.5,0.3,0.8c-0.1,0.3-0.5,0.4-0.8,0.3l0,0c0,0-0.1,0-0.1,0c-0.1,0-0.1,0-0.2,0c0,0,0,0.1,0.1,0.2
				c0.5,0.7,2.3,2,3.7,2.5c0.4,0.1,0.7,0.5,0.8,0.9c0.7,2.6,1.8,5.9,3,9.1c0.4,1.1,0.8,2.2,1.1,3.3c0.3,0.8,0.9,1,1.4,1
				c0.5,0,1.2-0.3,1.4-1l1.2-3.8c0.2-0.5,0.7-0.9,1.2-0.9h0.2c0.6,0,1,0.4,1.2,0.9l1.2,3.8c0.2,0.8,0.9,1,1.4,1c0.5,0,1.2-0.3,1.4-1
				c0.4-1.1,0.7-2.2,1.1-3.3c0.4-1.3,0.9-2.6,1.3-3.9c0.2-0.5,0.7-0.9,1.2-0.9c0.4,0,0.8,0.2,1,0.5c0.1,0.2,0.2,0.3,0.3,0.5
				c0.1,0.2,0.2,0.4,0.4,0.5c0.1,0.1,0.2,0.1,0.3,0.1c0,0,0,0,0-0.1c0-0.1,0-0.1,0-0.2c-0.1-0.9-0.7-1.8-1.5-2.3
				c-0.4-0.2-0.6-0.7-0.6-1.1c0-0.1,0-0.3,0.1-0.4c0.8-2.6,1.2-4.4,1.2-5.5c0-3.7-2.5-7.3-5.1-7.3c-1.7,0-2.5,0.3-3.3,0.6
				c-0.5,0.2-1,0.4-1.7,0.4c-0.7,0-1.2-0.2-1.8-0.4c-0.8-0.3-1.6-0.6-3.2-0.6c-2.1,0-4.2,2.3-4.9,5.3c-0.1,0.3-0.4,0.5-0.7,0.4
				c-0.3-0.1-0.5-0.4-0.4-0.7c0.9-3.6,3.4-6.2,6-6.2c1.8,0,2.8,0.4,3.6,0.7c0.5,0.2,0.9,0.3,1.4,0.3c0.5,0,0.8-0.1,1.3-0.3
				c0.8-0.3,1.8-0.7,3.7-0.7c3.3,0,6.3,4.1,6.3,8.5c0,1.2-0.4,3-1.3,5.8c0,0.1,0,0.1,0.1,0.1c1.1,0.7,1.9,1.9,2.1,3.2
				c0,0.1,0,0.2,0,0.3c0,0.3-0.1,0.5-0.2,0.8c-0.2,0.3-0.6,0.5-1,0.5c-0.4,0-0.8-0.2-1-0.4c-0.3-0.2-0.4-0.5-0.6-0.8
				c-0.1-0.1-0.1-0.2-0.2-0.4l-0.1,0c0,0-0.1,0-0.1,0.1c-0.4,1.3-0.9,2.6-1.3,3.9c-0.4,1.1-0.8,2.2-1.1,3.3
				C26.5,44.1,25.5,44.8,24.3,44.8z"/>
		</g>
		<path class="st9" d="M8,1.5c0,0.8-0.7,3.6-1.5,3.6S5,2.4,5,1.5S5.7,0,6.5,0S8,0.7,8,1.5z"/>
		<path class="st10" d="M3.5,2.2C4.2,2.7,5.9,5,5.3,5.7S2.3,5.1,1.6,4.6S0.8,3.1,1.4,2.4S2.9,1.7,3.5,2.2z"/>
		<path class="st11" d="M1.2,6.1C2,6,4.9,6.1,5,6.9S2.7,9,1.8,9.1S0.2,8.8,0,8S0.4,6.3,1.2,6.1z"/>
		<path class="st12" d="M2.8,10.4c0.4-0.8,2.2-2.9,3-2.5s0.1,3.1-0.3,3.9c-0.4,0.8-1.3,1.1-2.1,0.7S2.4,11.2,2.8,10.4z"/>
		<path class="st13" d="M7.1,11.9C6.8,11.1,6.3,8.3,7.1,8c0.8-0.3,2.5,1.9,2.9,2.7s0,1.7-0.8,2C8.4,13,7.5,12.6,7.1,11.9z"/>
		<path class="st14" d="M11,9.4C10.2,9.2,7.7,7.8,7.9,7c0.2-0.8,3-0.8,3.9-0.5s1.3,1.1,1.1,1.9S11.8,9.6,11,9.4z"/>
		<path class="st15" d="M11.5,4.9c-0.7,0.5-3.3,1.6-3.8,0.9s1.3-2.8,2-3.3s1.6-0.3,2.1,0.3C12.3,3.4,12.2,4.4,11.5,4.9z"/>
		<g>
			<path class="st8" d="M6.4,24.1c-0.3,0-0.6-0.3-0.6-0.6v-3.6c0-0.3,0.3-0.6,0.6-0.6S7,19.6,7,19.9v3.6C7,23.8,6.8,24.1,6.4,24.1z"
				/>
			<path class="st8" d="M6.4,20.5c-0.3,0-0.6-0.3-0.6-0.6v-2.7c0-0.3,0.3-0.6,0.6-0.6S7,16.9,7,17.2v2.7C7,20.3,6.8,20.5,6.4,20.5z"
				/>
			<path class="st8" d="M6.4,17.8c-0.3,0-0.6-0.3-0.6-0.6v-3.6c0-0.3,0.3-0.6,0.6-0.6S7,13.3,7,13.7v3.6C7,17.5,6.8,17.8,6.4,17.8z"
				/>
		</g>
		<g>
			<path class="st8" d="M3,18.7c-0.4,0-1.4-0.8-1.4-0.8s0.9-0.8,1.4-0.8s1.5,0.8,1.5,0.8S3.4,18.7,3,18.7z"/>
			<path class="st8" d="M3,19.3c-0.6,0-1.3-0.6-1.8-0.9C1.1,18.3,1,18.1,1,17.9c0-0.2,0.1-0.3,0.2-0.5c0.4-0.3,1.2-0.9,1.8-0.9
				c0.6,0,1.4,0.6,1.8,0.9C4.9,17.6,5,17.8,5,17.9c0,0.2-0.1,0.4-0.2,0.5C4.4,18.8,3.5,19.3,3,19.3z M2.6,17.9
				C2.8,18,2.9,18.1,3,18.1c0.1,0,0.2-0.1,0.4-0.2C3.2,17.8,3,17.8,3,17.7C2.9,17.8,2.8,17.8,2.6,17.9z"/>
		</g>
	</g>
</g>
</svg>
