<?xml version="1.0" encoding="utf-8"?>
<!-- Generator: Adobe Illustrator 23.0.1, SVG Export Plug-In . SVG Version: 6.00 Build 0)  -->
<svg version="1.1" id="レイヤー_1" xmlns="http://www.w3.org/2000/svg" xmlns:xlink="http://www.w3.org/1999/xlink" x="0px"
	 y="0px" viewBox="0 0 113 69.3" style="enable-background:new 0 0 113 69.3;" xml:space="preserve">
<style type="text/css">
	.st0{fill:#FFFFFF;}
</style>
<title>アセット 48</title>
<g>
	<g id="レイヤー_7">
		<path class="st0" d="M65.4,51.1l-1.1,0c-0.1,0-0.1,0-0.1-0.1v-0.6c0-0.1,0-0.1,0.1-0.1l1.1,0h1.1c0.1-0.3,0.2-0.5,0.3-0.8
			c0-0.1,0.1-0.3,0.1-0.4c0.1,0,0.3,0.1,0.4,0.1l0.3,0.1c0.1,0,0.1,0.1,0.1,0.1c0,0.1,0,0.1-0.1,0.1c-0.1,0.1-0.1,0.1-0.1,0.2
			c-0.1,0.2-0.2,0.4-0.3,0.6l0.9,0c0,0,0.1,0,0.1,0c0,0,0,0.1,0,0.1V51c0,0,0,0.1,0,0.1c0,0-0.1,0-0.1,0l-1.1,0h-0.4
			c0,0.2,0,0.3,0,0.5v0.2H67l1.1,0c0,0,0.1,0,0.1,0c0,0,0,0.1,0,0.1v0.6c0,0,0,0.1,0,0.1c0,0-0.1,0-0.1,0l-1.1,0H67
			c0.3,0.4,0.7,0.7,1.1,0.9c-0.1,0.2-0.2,0.4-0.3,0.5c0,0.1-0.1,0.1-0.1,0.1c0,0-0.1,0-0.2-0.1c-0.3-0.3-0.6-0.6-0.8-0.9
			c0,0.5,0,1,0,1.5c0,0.4,0,0.6,0,0.7c0,0.1,0,0.1,0,0.1c0,0-0.1,0-0.1,0H66c0,0-0.1,0-0.1,0c0,0,0,0,0-0.1c0,0,0-0.3,0-0.8
			c0-0.4,0-0.8,0-1.2c-0.3,0.5-0.7,1-1.1,1.4c-0.1,0.1-0.2,0.1-0.2,0.1s-0.1-0.1-0.1-0.2c-0.1-0.2-0.2-0.4-0.4-0.6
			c0.6-0.4,1.1-0.9,1.5-1.6h-0.2l-1.1,0c0,0-0.1,0-0.1,0c0,0,0-0.1,0-0.1v-0.6c0,0,0-0.1,0-0.1c0,0,0,0,0.1,0l1.1,0h0.5v-0.2
			c0-0.2,0-0.4,0-0.5H65.4z M67,48.9h-1.5l-1,0c0,0-0.1,0-0.1,0c0,0,0-0.1,0-0.1v-0.6c0,0,0-0.1,0-0.1c0,0,0.1,0,0.1,0l1,0h0.3V48
			c0-0.2,0-0.4-0.1-0.6c0.4,0,0.7,0,0.9,0c0.1,0,0.1,0,0.1,0.1c0,0.1,0,0.1-0.1,0.1c0,0.1,0,0.2,0,0.3v0.2H67l1,0c0.1,0,0.1,0,0.1,0
			c0,0,0,0.1,0,0.1v0.6c0,0,0,0.1,0,0.1c0,0-0.1,0-0.1,0L67,48.9z M65,49.4C64.9,49.3,64.9,49.3,65,49.4c0-0.1,0-0.1,0.1-0.1
			l0.4-0.1c0,0,0,0,0.1,0c0,0,0.1,0,0.1,0.1c0.1,0.2,0.2,0.5,0.3,0.8c0,0,0,0,0,0.1c0,0,0,0.1-0.1,0.1l-0.5,0.1c0,0-0.1,0-0.1,0
			c0,0-0.1,0-0.1-0.1C65.1,49.9,65.1,49.6,65,49.4z M67.5,54.9c0.4-0.5,0.7-1.1,0.9-1.8c0.1-0.8,0.2-1.7,0.2-2.5v-1
			c0-0.6,0-1.1-0.1-1.5c0.3,0,0.5,0.1,0.8,0.2c0.5-0.1,1-0.3,1.5-0.6c0.2-0.1,0.3-0.2,0.5-0.3c0.2,0.2,0.4,0.4,0.6,0.6
			c0,0,0.1,0.1,0.1,0.2c0,0.1,0,0.1-0.1,0.1c-0.1,0-0.2,0-0.3,0.1c-0.7,0.3-1.3,0.6-2,0.7v1.1H71l1.2,0c0,0,0.1,0,0.1,0
			c0,0,0,0.1,0,0.1v0.6c0,0,0,0.1,0,0.1c0,0-0.1,0-0.1,0H72l-0.8,0v3.1l0,1.2c0,0,0,0.1,0,0.1c0,0,0,0-0.1,0h-0.7c0,0-0.1,0-0.1,0
			c0,0,0-0.1,0-0.1l0-1.2V51h-0.9c0,0.8-0.1,1.7-0.2,2.5c-0.1,0.6-0.4,1.2-0.8,1.7c-0.1,0.1-0.1,0.2-0.2,0.2c0,0-0.1,0-0.2-0.1
			C67.9,55.1,67.7,55,67.5,54.9z"/>
		<path class="st0" d="M77,49.7L77,49.7c0,0.5,0,0.9-0.1,1.1H77l0.9,0c0.1,0,0.1,0,0.1,0c0,0,0,0.1,0,0.1v0.6c0,0.1,0,0.1,0,0.1
			c0,0-0.1,0-0.1,0l-0.9,0h-0.1v0c0.3,0.6,0.7,1.2,1.3,1.6c-0.2,0.1-0.3,0.3-0.4,0.5c-0.1,0.1-0.1,0.2-0.2,0.2c0,0-0.1,0-0.2-0.1
			c-0.3-0.3-0.5-0.6-0.7-1c-0.2,0.8-0.6,1.5-1.1,2.1c-0.1,0.1-0.2,0.2-0.2,0.2s-0.1-0.1-0.2-0.2c-0.1-0.2-0.3-0.3-0.5-0.4
			c0.8-0.7,1.3-1.7,1.4-2.7h-0.2l-0.9,0c0,0-0.1,0-0.1,0c0,0,0-0.1,0-0.1v-0.6c0-0.1,0-0.1,0.1-0.1l0.9,0h0.3c0-0.4,0-0.8,0-1.1H76
			l-0.9,0c0,0-0.1,0-0.1,0c0,0,0-0.1,0-0.1v-0.6c0,0,0-0.1,0-0.1c0,0,0.1,0,0.1,0l0.9,0h0.2v-0.5c0-0.3,0-0.6-0.1-0.9
			c0.3,0,0.6,0,0.9,0.1c0.1,0,0.1,0,0.1,0.1c0,0.1,0,0.1,0,0.2c0,0.1-0.1,0.3-0.1,0.4c0,0.1,0,0.3,0,0.6h0l0.9,0c0,0,0.1,0,0.1,0
			c0,0,0,0,0,0.1v0.6c0,0,0,0.1,0,0.1c0,0-0.1,0-0.1,0L77,49.7z M82,53.4c0.2,0.1,0.4,0.2,0.6,0.2c0.1,0,0.1,0,0.2,0.1
			c0,0,0,0.1,0,0.1c0,0,0,0.1,0,0.1c0,0.3,0,0.5-0.1,0.8c0,0.1-0.1,0.2-0.2,0.3c-0.3,0.2-0.7,0.3-1,0.3c-0.3,0-0.6,0-0.8-0.1
			c-0.2-0.1-0.3-0.3-0.3-0.6v-2h-0.4c-0.2,1.4-0.9,2.3-2,2.8c-0.1,0-0.1,0-0.2,0.1c-0.1,0-0.1-0.1-0.2-0.2c-0.1-0.2-0.3-0.3-0.5-0.5
			c1.2-0.3,1.9-1,2-2.2c-0.2,0-0.3,0-0.5,0h-0.1c-0.1,0-0.1,0-0.1,0c0,0,0-0.1,0-0.1l0-1v-2.5l0-1.1c0-0.1,0-0.1,0-0.1
			c0,0,0.1,0,0.1,0l1,0H81l1,0c0,0,0.1,0,0.1,0c0,0,0,0.1,0,0.1l0,1.1v2.5l0,1c0,0,0,0.1,0,0.1c0,0,0,0-0.1,0h-0.3
			c-0.2,0-0.4,0-0.6,0v1.6c0,0.1,0,0.2,0.1,0.3c0.1,0,0.2,0,0.3,0c0.1,0,0.2,0,0.3-0.1c0.1-0.1,0.1-0.2,0.1-0.4
			C82,53.9,82,53.7,82,53.4z M79.2,48.5v0.6h2.1v-0.6H79.2z M79.2,50.4h2.1v-0.6h-2.1V50.4z M81.2,51.8v-0.6h-2.1v0.6L81.2,51.8z"/>
		<path class="st0" d="M87.9,47.6l0.9,0c0.1,0,0.1,0,0.1,0.1l0,0.8v1l0,0.8c0,0.1,0,0.1-0.1,0.1l-0.9,0h-1.4v2.9l0,1.9
			c0,0,0,0.1,0,0.1c0,0-0.1,0-0.1,0h-0.7c0,0-0.1,0-0.1,0c0,0,0,0,0-0.1l0-1.9v-3.8l0-1.9c0,0,0-0.1,0-0.1c0,0,0.1,0,0.1,0l1,0
			L87.9,47.6z M88,48.3h-1.5v0.5H88L88,48.3z M88,49.9v-0.5h-1.5v0.5H88z M86.9,54.7c0.5-0.3,0.8-0.7,0.9-1.3l0-0.2h-0.7H87h-0.1
			c0,0-0.1,0-0.1,0c0,0,0-0.1,0-0.1v-0.5c0,0,0-0.1,0-0.1c0,0,0.1,0,0.1,0l1,0c0-0.3,0-0.5,0-0.8h-0.6h-0.2c0,0-0.1,0-0.1,0
			c0,0,0-0.1,0-0.1v-0.5c0,0,0-0.1,0-0.1c0,0,0.1,0,0.1,0l1.1,0h1.9l1.1,0c0,0,0.1,0,0.1,0c0,0,0,0.1,0,0.1v0.5c0,0,0,0.1,0,0.1
			c0,0-0.1,0-0.1,0h-0.1h-0.7v0.8l1,0c0,0,0.1,0,0.1,0c0,0,0,0.1,0,0.1v0.5c0,0,0,0.1,0,0.1c0,0,0,0-0.1,0l-1,0v0.8l0,0.9
			c0,0,0,0.1,0,0.1c0,0-0.1,0-0.1,0h-0.6c0,0-0.1,0-0.1,0c0,0,0-0.1,0-0.1l0-0.9v-0.8h-0.9c0,0.2,0,0.3-0.1,0.4
			c-0.1,0.6-0.4,1.1-0.8,1.5c-0.1,0.1-0.1,0.1-0.2,0.1c0,0-0.1-0.1-0.2-0.2C87.3,54.9,87.1,54.8,86.9,54.7z M88.8,52.6h0.9v-0.8
			h-0.8C88.8,52,88.8,52.3,88.8,52.6z M91,54.4c0.2,0,0.4,0,0.6,0c0.1,0,0.2,0,0.3-0.1c0-0.1,0.1-0.2,0.1-0.3v-3.6h-1.4l-1,0
			c-0.1,0-0.1,0-0.1,0c0,0,0-0.1,0-0.1l0-0.8v-1.2l0-0.8c0,0,0-0.1,0-0.1c0,0,0.1,0,0.1,0l1,0h1.3l1,0c0,0,0.1,0,0.1,0s0,0,0,0.1
			l0,1.2v3.7l0,1.6c0,0.2,0,0.4-0.1,0.5c0,0.1-0.1,0.2-0.2,0.3c-0.1,0.1-0.3,0.2-0.4,0.2c-0.2,0-0.5,0.1-0.7,0c-0.1,0-0.2,0-0.3,0
			c0-0.1-0.1-0.1-0.1-0.2C91.1,54.8,91.1,54.6,91,54.4z M92,48.3h-1.6v0.5H92V48.3z M92,49.9v-0.5h-1.6v0.5L92,49.9z"/>
		<path class="st0" d="M97,52.9h0.1c0.5,0,0.7-0.2,0.7-0.6c0-0.5-0.3-1.1-0.8-1.8c0.3-0.7,0.6-1.3,0.7-2h-0.9v5l0,1.9
			c0,0.1,0,0.1-0.1,0.1h-0.7c-0.1,0-0.1,0-0.1-0.1l0-1.9v-3.8l0-1.9c0,0,0-0.1,0-0.1c0,0,0.1,0,0.1,0l0.7,0H98c0.1,0,0.1,0,0.2,0
			c0,0,0.1,0,0.1,0c0.1,0,0.2,0.1,0.3,0.3c0.1,0.1,0.2,0.2,0.2,0.4c0,0.1,0,0.1-0.1,0.2c-0.1,0.1-0.2,0.2-0.2,0.3
			c-0.2,0.6-0.4,1.2-0.7,1.7c0.3,0.3,0.5,0.7,0.7,1.1c0.1,0.3,0.1,0.6,0.1,0.9c0,0.7-0.4,1.2-1.1,1.2h-0.1c-0.1,0-0.1,0-0.1-0.1
			c0-0.1,0-0.1,0-0.2C97.2,53.2,97.1,53,97,52.9z M97.7,54.7c0.8-0.2,1.3-0.5,1.6-1c0.3-0.5,0.4-1.1,0.4-1.7L99,52h-0.2
			c0,0-0.1,0-0.1,0c0,0,0,0,0-0.1v-0.6c0,0,0-0.1,0-0.1c0,0,0.1,0,0.1,0l1.2,0h2.3l1.2,0c0,0,0.1,0,0.1,0c0,0,0,0.1,0,0.1v0.6
			c0,0,0,0.1,0,0.1c0,0,0,0-0.1,0l-1.2,0h-0.2v2.1c0,0.2,0,0.3,0.1,0.3c0.1,0,0.2,0.1,0.3,0c0.2,0,0.3,0,0.4-0.1
			c0.1-0.3,0.1-0.6,0.1-0.9c0.2,0.1,0.4,0.2,0.6,0.2c0.1,0,0.1,0,0.2,0.1c0,0,0,0.1,0,0.1c0,0,0,0.1,0,0.1c0,0.3-0.1,0.6-0.1,0.8
			c-0.1,0.1-0.1,0.2-0.3,0.3c-0.3,0.2-0.7,0.2-1,0.2c-0.3,0-0.6,0-0.9-0.1c-0.2-0.2-0.3-0.4-0.3-0.7V52h-0.5c0,0.8-0.2,1.5-0.5,2.2
			c-0.3,0.5-0.9,0.9-1.4,1.1c-0.1,0-0.1,0.1-0.2,0.1c0,0-0.1-0.1-0.2-0.2C98.1,55,97.9,54.9,97.7,54.7z M101.7,50.5h-1.2l-0.9,0
			c0,0-0.1,0-0.1,0c0,0,0-0.1,0-0.1V50h-0.6c0,0-0.1,0-0.1,0c0,0,0-0.1,0-0.1l0-0.8v-0.3l0-0.4c0,0,0-0.1,0-0.1c0,0,0.1,0,0.1,0
			l1.2,0h0.5v-0.1c0-0.3,0-0.6-0.1-0.8c0.3,0,0.6,0,0.9,0.1c0.1,0,0.1,0,0.1,0.1c0,0.1,0,0.1,0,0.2c0,0.2-0.1,0.3-0.1,0.5v0.1h0.7
			l1.2,0c0,0,0.1,0,0.1,0c0,0,0,0,0,0.1l0,0.4v0.3l0,0.8c0,0,0,0.1,0,0.1c0,0-0.1,0-0.1,0h-0.6v0.4c0,0,0,0.1,0,0.1c0,0,0,0-0.1,0
			L101.7,50.5z M99.6,49.1v0.6l0.9,0h1.2c0.5,0,0.8,0,0.9,0v-0.6H99.6z"/>
		<g>
			<path class="st0" d="M5.2,54.7c0.5-0.7,2-2.7,2.6-3.5C7.9,50.9,8,50.7,8,50.4c0-0.4-0.3-0.7-0.9-0.7c-0.4,0-0.7,0.2-0.9,0.5
				c-0.1,0.1-0.2,0.1-0.3,0c0,0,0,0,0,0l-0.6-0.6c-0.1-0.1-0.1-0.2,0-0.2c0.5-0.6,1.2-0.9,1.9-0.9c1.4,0,2.2,0.9,2.2,1.9
				c0,0.4-0.1,0.9-0.4,1.3c-0.3,0.5-1.1,1.6-1.5,2.2h1.7c0.1,0,0.2,0.1,0.2,0.2v0.9c0,0.1-0.1,0.2-0.2,0.2H5.4
				c-0.1,0-0.2-0.1-0.2-0.2L5.2,54.7z"/>
			<path class="st0" d="M12.4,51.8c0-2.1,0.9-3.4,2.5-3.4s2.5,1.3,2.5,3.4c0,2.1-0.9,3.4-2.5,3.4S12.4,53.9,12.4,51.8z M15.8,51.8
				c0-1.3-0.3-2-0.9-2s-0.9,0.7-0.9,2c0,1.3,0.3,2,0.9,2C15.5,53.8,15.8,53.1,15.8,51.8z"/>
			<path class="st0" d="M21.2,50.6h-0.9c-0.1,0-0.2-0.1-0.2-0.2v-0.6c0-0.1,0-0.1,0.1-0.1l1.4-1.1h0.9c0.1,0,0.2,0.1,0.2,0.2
				c0,0,0,0,0,0v6.2c0,0.1-0.1,0.2-0.2,0.2h-1.1c-0.1,0-0.2-0.1-0.2-0.2V50.6z"/>
			<path class="st0" d="M26.9,51.7L26.9,51.7c-0.6-0.3-0.9-0.9-1-1.5c0-1.1,0.9-1.8,2.1-1.8s2.2,0.7,2.2,1.8c-0.1,0.6-0.4,1.2-1,1.5
				v0c0.7,0.3,1.1,0.9,1.2,1.6c0,1.1-0.9,1.8-2.4,1.8c-1.4,0-2.3-0.8-2.3-1.8C25.7,52.5,26.7,51.8,26.9,51.7z M28.1,54
				c0.4,0,0.8-0.3,0.8-0.7c0-0.4-0.4-0.8-0.8-0.9c-0.4,0.1-0.7,0.5-0.8,0.9C27.3,53.7,27.7,54,28.1,54z M28.8,50.3
				c0-0.4-0.3-0.7-0.7-0.7c-0.4,0-0.7,0.3-0.7,0.7c0,0.3,0.2,0.6,0.7,0.8C28.5,51,28.7,50.6,28.8,50.3z"/>
			<path class="st0" d="M33.9,53.4c0.5,0,0.9,0.3,1,0.8c0,0.5-0.3,0.9-0.8,1c0,0-0.1,0-0.1,0c-0.5,0-0.9-0.5-0.8-1
				C33.1,53.7,33.5,53.4,33.9,53.4z"/>
			<path class="st0" d="M37.9,50.6H37c-0.1,0-0.2-0.1-0.2-0.2v-0.6c0-0.1,0-0.1,0.1-0.1l1.4-1.1h0.9c0.1,0,0.2,0.1,0.2,0.2
				c0,0,0,0,0,0v6.2c0,0.1-0.1,0.2-0.2,0.2h-1.1c-0.1,0-0.2-0.1-0.2-0.2c0,0,0,0,0,0L37.9,50.6z"/>
			<path class="st0" d="M42.3,54.7c0.6-0.7,2-2.7,2.6-3.5c0.2-0.2,0.2-0.5,0.3-0.7c0-0.4-0.4-0.7-0.8-0.7c0,0,0,0,0,0
				c-0.4,0-0.7,0.2-0.9,0.5c-0.1,0.1-0.2,0.1-0.3,0c0,0,0,0,0,0l-0.6-0.6c-0.1-0.1-0.1-0.2,0-0.2c0.5-0.6,1.2-0.9,1.9-0.9
				c1.4,0,2.2,0.9,2.2,1.9c0,0.4-0.1,0.9-0.4,1.3c-0.3,0.5-1.1,1.6-1.6,2.2h1.7c0.1,0,0.2,0.1,0.2,0.2c0,0,0,0,0,0v0.9
				c0,0.1-0.1,0.2-0.2,0.2h-3.8c-0.1,0-0.2-0.1-0.2-0.2L42.3,54.7z"/>
			<path class="st0" d="M50.2,53.4c0.5,0,0.9,0.3,1,0.8c0,0.5-0.3,0.9-0.8,1c0,0-0.1,0-0.1,0c-0.5,0-0.9-0.5-0.8-1
				C49.4,53.7,49.7,53.4,50.2,53.4z"/>
			<path class="st0" d="M53.6,54.1l0.6-0.6c0.1-0.1,0.2-0.1,0.2,0c0.3,0.2,0.7,0.4,1.1,0.4c0.4,0,0.8-0.3,0.8-0.8
				c0-0.4-0.4-0.8-1.1-0.8h-0.5c-0.1,0-0.2-0.1-0.2-0.2v-0.8c0-0.1,0.1-0.2,0.2-0.2c0,0,0,0,0,0h0.5c0.7,0,1-0.3,1-0.7
				c0-0.4-0.4-0.7-0.8-0.7c0,0,0,0,0,0c-0.3,0-0.6,0.1-0.8,0.4c-0.1,0.1-0.2,0.1-0.2,0c0,0,0,0,0,0l-0.6-0.6c-0.1-0.1-0.1-0.2,0-0.2
				c0,0,0,0,0,0c0.5-0.5,1.1-0.8,1.8-0.8c1.1,0,2.1,0.7,2.1,1.8c0,0.7-0.4,1.2-1,1.5l0,0c0.7,0.3,1.1,0.9,1.2,1.6
				c0,1.1-0.9,1.8-2.2,1.8c-0.8,0-1.5-0.3-2-0.9C53.5,54.3,53.5,54.1,53.6,54.1z"/>
		</g>
	</g>
</g>
<path class="st0" d="M112,41.3v20.3H18.9h-0.4l-0.3,0.3l-4.8,4.8v-4.1v-1h-1H1V41.3H112 M113,40.3H0v22.3h12.4v6.5l6.5-6.5H113V40.3
	L113,40.3z"/>
</svg>
