<svg xmlns="http://www.w3.org/2000/svg" viewBox="0 0 16.45 29.52"><defs><style>.cls-1{fill:#daf2da;}.cls-2{fill:#545454;}.cls-3{fill:#bde7ef;}.cls-4{fill:#e1dbf1;}.cls-5{fill:#fbd3dd;}.cls-6{fill:#fac6c5;}.cls-7{fill:#ffdec7;}.cls-8{fill:#fafcbf;}.cls-9{fill:#caebf0;}</style></defs><title>アセット 12</title><g id="レイヤー_2" data-name="レイヤー 2"><g id="header"><path class="cls-1" d="M10.08,2.53c0,1-.82,4.12-1.78,4.12S6.51,3.49,6.51,2.53a1.79,1.79,0,0,1,3.57,0Z"/><path class="cls-2" d="M8.3.75a1.81,1.81,0,0,1,1.78,1.78c0,1-.82,4.12-1.78,4.12S6.51,3.49,6.51,2.53A1.82,1.82,0,0,1,8.3.75M8.3,0A2.57,2.57,0,0,0,5.76,2.53c0,.72.7,4.87,2.54,4.87s2.53-4.15,2.53-4.87A2.57,2.57,0,0,0,8.3,0Z"/><path class="cls-3" d="M4.87,3.29c.75.61,2.74,3.22,2.12,4S3.43,6.64,2.68,6A1.75,1.75,0,1,1,4.87,3.29Z"/><path class="cls-2" d="M3.78,2.9a1.66,1.66,0,0,1,1.09.39c.75.61,2.74,3.22,2.12,4a.77.77,0,0,1-.64.22A8.17,8.17,0,0,1,2.68,6,1.75,1.75,0,0,1,2.4,3.56,1.81,1.81,0,0,1,3.78,2.9m0-.75a2.54,2.54,0,0,0-2,.93,2.44,2.44,0,0,0-.54,1.85A2.52,2.52,0,0,0,2.2,6.61,8.87,8.87,0,0,0,6.35,8.23a1.49,1.49,0,0,0,1.22-.49C8.78,6.26,5.71,3,5.34,2.71a2.46,2.46,0,0,0-1.56-.56Z"/><path class="cls-4" d="M2.2,7.88c.95-.21,4.18-.07,4.38.89s-2.74,2.4-3.7,2.6A1.78,1.78,0,0,1,.76,10,1.91,1.91,0,0,1,2.2,7.88Z"/><path class="cls-2" d="M3.28,7.8c1.32,0,3.15.25,3.3,1,.21,1-2.74,2.4-3.7,2.61a2.31,2.31,0,0,1-.37,0A1.78,1.78,0,0,1,.76,10,1.91,1.91,0,0,1,2.2,7.88,5.87,5.87,0,0,1,3.28,7.8m0-.75h0A5.94,5.94,0,0,0,2,7.15a2.65,2.65,0,0,0-2,2.9v.11a2.56,2.56,0,0,0,2.49,2A2.38,2.38,0,0,0,3,12.11c.47-.1,4.68-1.6,4.28-3.5C7,7.2,4.39,7.05,3.28,7.05Z"/><path class="cls-5" d="M4.05,12.81c.41-.89,2.6-3.35,3.42-2.87s.14,3.63-.27,4.45a1.76,1.76,0,0,1-3.15-1.58Z"/><path class="cls-2" d="M7.23,9.87a.4.4,0,0,1,.24.07c.83.48.14,3.63-.27,4.45a1.69,1.69,0,0,1-1.55,1,1.87,1.87,0,0,1-.85-.21,1.74,1.74,0,0,1-.75-2.34C4.42,12,6.28,9.87,7.23,9.87m0-.75h0c-1.46,0-3.49,2.57-3.86,3.38a2.5,2.5,0,0,0,1.07,3.31,2.61,2.61,0,0,0,1.21.3,2.45,2.45,0,0,0,2.23-1.4c.3-.61,1.51-4.53,0-5.42a1.18,1.18,0,0,0-.62-.17Z"/><path class="cls-6" d="M9.05,14.46c-.41-.89-1-4.11-.07-4.52s2.88,2.19,3.29,3.08a1.76,1.76,0,1,1-3.22,1.44Z"/><path class="cls-2" d="M9.19,9.89c1,0,2.7,2.3,3.08,3.13a1.76,1.76,0,0,1-.89,2.33,1.68,1.68,0,0,1-.72.16,1.79,1.79,0,0,1-1.61-1c-.41-.89-1-4.11-.07-4.52a.54.54,0,0,1,.21,0m0-.75a1.31,1.31,0,0,0-.52.11c-.72.34-1,1.26-.89,2.83a9.38,9.38,0,0,0,.59,2.69,2.53,2.53,0,0,0,2.29,1.49,2.42,2.42,0,0,0,1-.23A2.53,2.53,0,0,0,13,14.64,2.4,2.4,0,0,0,13,12.71c-.29-.63-2.19-3.57-3.76-3.57Z"/><path class="cls-7" d="M13.51,11.58c-1-.27-3.77-1.85-3.57-2.74s3.5-.89,4.46-.62a1.77,1.77,0,0,1,1.23,2.2A1.67,1.67,0,0,1,13.51,11.58Z"/><path class="cls-2" d="M12.61,8a7.82,7.82,0,0,1,1.79.18,1.77,1.77,0,0,1,1.23,2.2A1.64,1.64,0,0,1,14,11.65a1.68,1.68,0,0,1-.5-.07c-1-.27-3.77-1.85-3.57-2.74.17-.6,1.48-.8,2.67-.8m0-.75h0c-2,0-3.14.45-3.39,1.34-.42,1.82,3.63,3.54,4.08,3.67a2.44,2.44,0,0,0,.71.1,2.38,2.38,0,0,0,2.35-1.82,2.47,2.47,0,0,0-.23-1.89A2.55,2.55,0,0,0,14.6,7.5a8,8,0,0,0-2-.21Z"/><path class="cls-8" d="M14.12,6.37c-.82.55-3.84,1.78-4.38,1s1.5-3.29,2.33-3.84a1.74,1.74,0,1,1,2,2.81Z"/><path class="cls-2" d="M13.13,3.23a1.66,1.66,0,0,1,1.4.74,1.74,1.74,0,0,1-.41,2.4,9.25,9.25,0,0,1-3.7,1.27.79.79,0,0,1-.68-.24c-.55-.76,1.5-3.29,2.33-3.84a1.92,1.92,0,0,1,1.06-.33m0-.75h0a2.66,2.66,0,0,0-1.48.46A8.27,8.27,0,0,0,8.92,6.75a1.38,1.38,0,0,0,.21,1.09,1.5,1.5,0,0,0,1.29.55A9.82,9.82,0,0,0,14.54,7a2.5,2.5,0,0,0,1-1.61,2.42,2.42,0,0,0-.42-1.85,2.38,2.38,0,0,0-2-1Z"/><path class="cls-9" d="M8.85,16.52a.63.63,0,0,0-.62-.63.62.62,0,0,0-.62.63v4.11h0v3.15h0v4.11a.62.62,0,0,0,.62.63.63.63,0,0,0,.62-.63V23.78h0V20.63h0Z"/><path class="cls-2" d="M8.23,15.89a.63.63,0,0,1,.62.63v4.11h0V27.9a.62.62,0,0,1-.62.62.62.62,0,0,1-.62-.62V20.63h0V16.52a.62.62,0,0,1,.62-.63m0-1a1.62,1.62,0,0,0-1.62,1.63V27.9a1.62,1.62,0,1,0,3.24,0V16.52a1.63,1.63,0,0,0-1.62-1.63Z"/><path class="cls-9" d="M6.33,21a4.85,4.85,0,0,0-2.08-1,4.13,4.13,0,0,0-2,1,.65.65,0,0,0-.23.47.64.64,0,0,0,.22.48,3.75,3.75,0,0,0,1.94,1h.08a4.65,4.65,0,0,0,2.05-1,.62.62,0,0,0,0-1Z"/><path class="cls-2" d="M4.25,19.94a4.85,4.85,0,0,1,2.08,1,.62.62,0,0,1,0,1,4.65,4.65,0,0,1-2,1H4.21a3.75,3.75,0,0,1-1.94-1,.64.64,0,0,1-.22-.48A.65.65,0,0,1,2.28,21a4.13,4.13,0,0,1,2-1m0-1c-.26,0-1,0-2.6,1.25a1.64,1.64,0,0,0-.6,1.23,1.61,1.61,0,0,0,.56,1.25A4.28,4.28,0,0,0,4.21,24h.14A5.34,5.34,0,0,0,7,22.74a1.64,1.64,0,0,0,.64-1.31,1.61,1.61,0,0,0-.68-1.29c-1.65-1.2-2.41-1.2-2.66-1.2Z"/></g></g></svg>