<svg xmlns="http://www.w3.org/2000/svg" viewBox="0 0 24 23.59"><defs><style>.cls-1{fill:#caebf0;}.cls-2{fill:#daf2da;}.cls-3{fill:#fafcbf;}.cls-4{fill:#545454;}</style></defs><title>アセット 11</title><g id="レイヤー_2" data-name="レイヤー 2"><g id="header"><polygon class="cls-1" points="11.81 0.66 2.54 8.85 2.54 21.78 3.82 23.05 11.92 23.02 11.92 0.75 11.81 0.66"/><polygon class="cls-2" points="21.26 21.58 21.3 8.29 11.92 0.75 11.92 23.02 20.38 23 21.26 21.58"/><rect class="cls-3" x="8.88" y="14.48" width="6.24" height="8.61"/><path class="cls-4" d="M23.49,10.62a.5.5,0,0,1-.32-.11L12,1.15.82,10.51a.49.49,0,0,1-.7-.06.51.51,0,0,1,.06-.71L11.68.12a.49.49,0,0,1,.64,0l11.5,9.62a.51.51,0,0,1,.06.71A.52.52,0,0,1,23.49,10.62Z"/><path class="cls-4" d="M19.71,23.59H14.62V15H9.38v8.61H4.28a2.23,2.23,0,0,1-2.42-1.95V8.57h1V21.64c0,.51.65.95,1.42.95h4.1V14h7.24v8.61h4.09c.78,0,1.43-.44,1.43-.95V8.57h1V21.64A2.24,2.24,0,0,1,19.71,23.59Z"/><path class="cls-4" d="M15.12,23.59H9a.5.5,0,1,1,0-1h6.08a.5.5,0,1,1,0,1Z"/></g></g></svg>