<svg xmlns="http://www.w3.org/2000/svg" viewBox="0 0 25.87 25.22"><defs><style>.cls-1{fill:#545454;}.cls-2{fill:#fafcbf;}.cls-3{fill:#caebf0;}.cls-4{fill:#ffdec7;}.cls-5{fill:none;}</style></defs><title>アセット 15</title><g id="レイヤー_2" data-name="レイヤー 2"><g id="header"><path class="cls-1" d="M13,20.06h0a.56.56,0,0,1-.4-.2L9.12,15.34a.5.5,0,0,1,.79-.61l3.1,4,3.26-4.09a.49.49,0,0,1,.7-.08.5.5,0,0,1,.08.7l-3.65,4.6A.49.49,0,0,1,13,20.06Z"/><line class="cls-2" x1="11.97" y1="21.17" x2="11.97" y2="24.72"/><path class="cls-1" d="M12,25.22a.5.5,0,0,1-.5-.5V21.17a.5.5,0,0,1,.5-.5.5.5,0,0,1,.5.5v3.55A.5.5,0,0,1,12,25.22Z"/><line class="cls-2" x1="14.04" y1="21.17" x2="14.04" y2="24.72"/><path class="cls-1" d="M14,25.22a.5.5,0,0,1-.5-.5V21.17a.5.5,0,0,1,.5-.5.5.5,0,0,1,.5.5v3.55A.5.5,0,0,1,14,25.22Z"/><path class="cls-3" d="M23.84,16.24c.64,0,1.53-.56,1.53-1.21V7.52a2,2,0,0,0-1.13-1.69,10.28,10.28,0,0,0-6.62,0,1.86,1.86,0,0,0-1.13,1.69V15c0,.65.89,1.21,1.53,1.21"/><path class="cls-1" d="M23.84,16.74a.5.5,0,0,1-.5-.5.5.5,0,0,1,.5-.5c.43,0,1-.41,1-.71V7.52a1.47,1.47,0,0,0-.81-1.22,9.78,9.78,0,0,0-6.28,0A1.37,1.37,0,0,0,17,7.52V15c0,.3.6.71,1,.71a.5.5,0,0,1,.5.5.5.5,0,0,1-.5.5A2,2,0,0,1,16,15V7.52a2.37,2.37,0,0,1,1.45-2.16,11,11,0,0,1,7,0,2.47,2.47,0,0,1,1.47,2.17V15A2,2,0,0,1,23.84,16.74Z"/><circle class="cls-2" cx="13.02" cy="15.19" r="1.78"/><path class="cls-1" d="M13,17.47a2.28,2.28,0,1,1,2.27-2.28A2.29,2.29,0,0,1,13,17.47Zm0-3.56a1.28,1.28,0,1,0,1.27,1.28A1.28,1.28,0,0,0,13,13.91Z"/><rect class="cls-2" x="11.08" y="17.05" width="3.88" height="4.2"/><path class="cls-1" d="M15,21.75H11.08a.5.5,0,0,1-.5-.5v-4.2a.5.5,0,0,1,.5-.5H15a.5.5,0,0,1,.5.5v4.2A.5.5,0,0,1,15,21.75Zm-3.37-1h2.87v-3.2H11.58Z"/><path class="cls-4" d="M5.91,24.64c.4-3.63.81-7.26,1.21-11H2.68c.4,3.63.81,7.27,1.21,11Z"/><path class="cls-1" d="M5.91,25.14h-2a.51.51,0,0,1-.5-.44c-.36-3.39-.73-6.7-1.1-10l-.11-1a.5.5,0,0,1,.13-.39.48.48,0,0,1,.37-.17H7.12a.48.48,0,0,1,.37.17.49.49,0,0,1,.13.39c-.37,3.38-.74,6.69-1.1,10l-.11,1A.5.5,0,0,1,5.91,25.14Zm-1.57-1H5.46l.06-.53c.35-3.13.7-6.26,1-9.45H3.24l0,.42C3.64,17.75,4,20.91,4.34,24.14Z"/><line class="cls-5" x1="20.93" y1="16.65" x2="20.93" y2="24.64"/><polyline class="cls-3" points="18.43 12.31 18.43 24.64 23.51 24.64 23.51 12.31"/><path class="cls-1" d="M23.51,25.14H18.43a.5.5,0,0,1-.5-.5V12.31a.5.5,0,0,1,.5-.5.51.51,0,0,1,.5.5V24.14H23V12.31a.51.51,0,0,1,.5-.5.5.5,0,0,1,.5.5V24.64A.5.5,0,0,1,23.51,25.14Z"/><circle class="cls-3" cx="20.93" cy="2.92" r="2.42"/><path class="cls-1" d="M20.93,5.84a2.92,2.92,0,1,1,2.92-2.92A2.92,2.92,0,0,1,20.93,5.84Zm0-4.84a1.92,1.92,0,1,0,1.92,1.92A1.92,1.92,0,0,0,20.93,1Z"/><path class="cls-4" d="M10.35,14.79l-1.29-4c-.24-.8-.49-1.61-.73-2.5A3.93,3.93,0,0,0,7.12,6.56c-.56-.17-1-.33-1.45-.41A2.27,2.27,0,0,0,7.28,3.89,2.38,2.38,0,0,0,4.86,1.47,2.38,2.38,0,0,0,2.44,3.89,2.43,2.43,0,0,0,4.13,6.15a5.9,5.9,0,0,0-1.45.49A2.76,2.76,0,0,0,1.47,8.33c-.32,1.13-.65,2.18-1,3.31.32,1.13.65,2.18,1,3.31.08.16.08.25.16.41-.32,1.37-.56,2.82-.89,4.2H9c-.24-1.3-.57-2.67-.81-4Z"/><path class="cls-1" d="M9,20.06H.74a.5.5,0,0,1-.48-.62c.16-.68.3-1.38.44-2.08s.26-1.32.41-2a.32.32,0,0,1,0-.09L1,15.17.51,13.44C.34,12.89.18,12.35,0,11.78a.45.45,0,0,1,0-.28c.16-.56.32-1.11.49-1.65S.83,8.76,1,8.19a3.21,3.21,0,0,1,1.47-2L2.9,6a2.81,2.81,0,0,1-1-2.11A2.89,2.89,0,0,1,4.86,1,2.89,2.89,0,0,1,7.78,3.89,2.94,2.94,0,0,1,6.93,6l.33.09a.67.67,0,0,1,.12.06,4.4,4.4,0,0,1,1.42,2c.25.92.49,1.72.73,2.52l1.3,4a.5.5,0,0,1-.31.62l-1.78.66c.1.51.21,1,.32,1.55.15.67.29,1.34.41,2a.47.47,0,0,1-.11.41A.47.47,0,0,1,9,20.06Zm-7.61-1h7c-.09-.46-.19-.92-.28-1.38-.15-.67-.29-1.34-.41-2A.5.5,0,0,1,8,15.13l1.73-.64L8.58,10.91c-.25-.83-.49-1.64-.73-2.53A3.92,3.92,0,0,0,6.91,7L6.5,6.89c-.35-.1-.66-.19-.93-.25a.5.5,0,0,1,0-1A1.79,1.79,0,0,0,6.78,3.89,1.88,1.88,0,0,0,4.86,2,1.88,1.88,0,0,0,2.94,3.89,1.92,1.92,0,0,0,4.29,5.68a.49.49,0,0,1,.34.51.51.51,0,0,1-.41.46,5.28,5.28,0,0,0-1.34.45A2.25,2.25,0,0,0,2,8.44c-.17.6-.33,1.14-.5,1.69s-.29,1-.44,1.51c.15.52.3,1,.44,1.52s.33,1.09.49,1.65A.77.77,0,0,1,2,15a1.39,1.39,0,0,0,.06.13.57.57,0,0,1,0,.34c-.16.68-.3,1.38-.44,2.08C1.58,18.06,1.48,18.56,1.37,19.06Z"/><polygon class="cls-1" points="9.59 20.05 0.13 20.05 1.96 11.17 2.94 11.37 1.36 19.05 8.37 19.05 6.84 11.37 7.82 11.17 9.59 20.05"/><rect class="cls-1" x="20.43" y="16.65" width="1" height="7.99"/></g></g></svg>