<svg xmlns="http://www.w3.org/2000/svg" viewBox="0 0 32.03 22.71"><defs><style>.cls-1{fill:#bde7ef;}.cls-2{fill:#454545;}.cls-3{fill:#545454;}.cls-4{fill:#fbd3dd;}.cls-5{fill:#fff;}</style></defs><title>アセット 2</title><g id="レイヤー_2" data-name="レイヤー 2"><g id="bg"><path class="cls-1" d="M6.38,0,29.31.06A2.59,2.59,0,0,1,32,2.47l0,13.26a2.59,2.59,0,0,1-2.74,2.4L6.33,18.06a2.58,2.58,0,0,1-2.72-2.41l0-13.25A2.58,2.58,0,0,1,6.38,0Z"/><path class="cls-2" d="M6.38,0V1l22.92.06a1.92,1.92,0,0,1,1.27.46,1.26,1.26,0,0,1,.46,1l0,13.26a1.61,1.61,0,0,1-1.74,1.4L6.34,17.06a1.91,1.91,0,0,1-1.27-.45,1.27,1.27,0,0,1-.46-.95l0-13.26A1.59,1.59,0,0,1,6.38,1V0m0,0A2.58,2.58,0,0,0,3.65,2.4l0,13.25a2.58,2.58,0,0,0,2.72,2.41l22.93.07h0A2.59,2.59,0,0,0,32,15.73L32,2.47A2.59,2.59,0,0,0,29.31.06L6.38,0Z"/><path class="cls-3" d="M6.49,7.88h-5A1.51,1.51,0,0,0,0,9.4V21.19a1.51,1.51,0,0,0,1.52,1.52h5A1.5,1.5,0,0,0,8,21.19V9.4A1.46,1.46,0,0,0,6.49,7.88ZM4,21.87a.58.58,0,0,1-.59-.59A.57.57,0,0,1,4,20.6a.58.58,0,0,1,.59.59A.65.65,0,0,1,4,21.87Zm3.12-12v9.86H.93V9.82Z"/><rect class="cls-4" x="0.67" y="9.4" width="6.66" height="10.28"/><circle class="cls-5" cx="4.04" cy="21.02" r="0.76"/><path class="cls-2" d="M17.82,22.58a.5.5,0,0,1-.5-.5V17.62a.5.5,0,0,1,.5-.5.5.5,0,0,1,.5.5v4.46A.5.5,0,0,1,17.82,22.58Z"/><path class="cls-2" d="M25,22.66H10.66a.5.5,0,0,1-.5-.5.51.51,0,0,1,.5-.5H25a.51.51,0,0,1,.5.5A.5.5,0,0,1,25,22.66Z"/></g></g></svg>