<svg xmlns="http://www.w3.org/2000/svg" viewBox="0 0 22.04 22.04"><defs><style>.cls-1{fill:#e1dbf1;}.cls-2{fill:#ffdec7;}.cls-3{fill:#bde7ef;}.cls-4{fill:#daf2da;}.cls-5{fill:#fafcbf;}.cls-6{fill:#545454;}</style></defs><title>アセット 17</title><g id="レイヤー_2" data-name="レイヤー 2"><g id="bg"><path class="cls-1" d="M.51,20.92a.52.52,0,0,0,.61.61L3,21.18.85,19Z"/><polygon class="cls-2" points="5.8 20.52 1.5 16.23 1.32 16.43 0.85 19.03 3.01 21.18 5.61 20.71 5.8 20.52"/><polygon class="cls-3" points="15.26 2.49 13.58 4.17 17.87 8.46 19.55 6.79 19.55 6.78 15.26 2.49"/><path class="cls-4" d="M17.08.66,15.26,2.49l4.29,4.29h0L21.37,5a.54.54,0,0,0,0-.76L17.84.65A.54.54,0,0,0,17.08.66Z"/><polygon class="cls-5" points="17.87 8.46 13.58 4.17 11.13 6.6 6.34 11.4 1.5 16.23 5.8 20.52 10.59 15.75 15.43 10.9 19.55 6.79 17.87 8.46"/><path class="cls-6" d="M1,22a1,1,0,0,1-1-1.21l.81-4.49A.5.5,0,0,1,1,16.08l.18-.19L13.22,3.81a.5.5,0,0,1,.71,0,.48.48,0,0,1,0,.7L1.79,16.66,1,21l4.37-.76L21,4.61,17.48,1,15.61,2.84a.48.48,0,0,1-.7,0,.5.5,0,0,1,0-.71L16.73.31A1,1,0,0,1,17.47,0h0a1,1,0,0,1,.72.3l3.55,3.54a1,1,0,0,1,0,1.47L6,21.07a.51.51,0,0,1-.26.14L1.21,22Z"/><path class="cls-6" d="M17.87,9a.51.51,0,0,1-.36-.15L13.22,4.52a.5.5,0,0,1-.14-.35.54.54,0,0,1,.14-.36l1.69-1.68a.5.5,0,0,1,.7,0L19.9,6.42a.51.51,0,0,1,0,.72L18.22,8.81A.5.5,0,0,1,17.87,9ZM14.28,4.17l3.59,3.58,1-1L15.26,3.19Z"/><path class="cls-6" d="M3,21.68a.52.52,0,0,1-.35-.14L.5,19.39a.5.5,0,0,1,0-.71.48.48,0,0,1,.7,0l2.16,2.15a.49.49,0,0,1,0,.7A.51.51,0,0,1,3,21.68Z"/><path class="cls-6" d="M5.8,21a.52.52,0,0,1-.35-.14l-4.3-4.29a.5.5,0,0,1,0-.71.5.5,0,0,1,.71,0l4.3,4.29a.51.51,0,0,1,0,.71A.54.54,0,0,1,5.8,21Z"/></g></g></svg>