<svg xmlns="http://www.w3.org/2000/svg" viewBox="0 0 19.16 21.67"><defs><style>.cls-1{fill:#fafcbf;}.cls-2{fill:#fbd3dd;}.cls-3{fill:#545454;}</style></defs><title>アセット 14</title><g id="レイヤー_2" data-name="レイヤー 2"><g id="header"><path class="cls-1" d="M9.58,15.17a2.62,2.62,0,0,1,2.17,1.29l.69,3.75c1,1.49,2.89,1.19,3.51-.57A66.6,66.6,0,0,0,18,12a25.66,25.66,0,0,0,.52-3h-9Z"/><path class="cls-2" d="M.62,9a27.67,27.67,0,0,0,.51,3A71.14,71.14,0,0,0,3.2,19.64c.62,1.76,2.54,2.06,3.51.57l.7-3.75a2.6,2.6,0,0,1,2.17-1.29V9Z"/><path class="cls-1" d="M13.55.5a2.89,2.89,0,0,0-2.1,1.31,2.38,2.38,0,0,1-1.87.9V9h9C19.33,1.62,15.63.5,13.55.5Z"/><path class="cls-2" d="M9.58,2.71a2.36,2.36,0,0,1-1.87-.9A2.93,2.93,0,0,0,5.61.5C3.53.5-.17,1.62.62,9h9Z"/><path class="cls-3" d="M14.05,21.67a2.46,2.46,0,0,1-2-1.19A.67.67,0,0,1,12,20.3l-.68-3.65a2,2,0,0,0-3.39,0L7.21,20.3a.71.71,0,0,1-.08.18,2.38,2.38,0,0,1-2.29,1.17A2.62,2.62,0,0,1,2.73,19.8,71.74,71.74,0,0,1,.64,12.14c-1.07-4.79-.8-8.25.82-10.26A5.21,5.21,0,0,1,5.61,0,3.31,3.31,0,0,1,8.1,1.5a1.89,1.89,0,0,0,1.48.71h0a1.85,1.85,0,0,0,1.47-.71A3.35,3.35,0,0,1,13.55,0,5.22,5.22,0,0,1,17.7,1.88c1.61,2,1.89,5.47.81,10.26a68.81,68.81,0,0,1-2.09,7.66,2.6,2.6,0,0,1-2.1,1.85ZM12.91,20a1.4,1.4,0,0,0,1.29.65,1.65,1.65,0,0,0,1.28-1.19,70,70,0,0,0,2.06-7.54c1-4.43.77-7.68-.62-9.43A4.19,4.19,0,0,0,13.55,1a2.39,2.39,0,0,0-1.71,1.13A2.89,2.89,0,0,1,9.58,3.21h0A2.89,2.89,0,0,1,7.32,2.13,2.41,2.41,0,0,0,5.61,1,4.18,4.18,0,0,0,2.24,2.5c-1.4,1.75-1.61,5-.62,9.43a70,70,0,0,0,2.06,7.54A1.62,1.62,0,0,0,5,20.66,1.37,1.37,0,0,0,6.24,20l.68-3.65A.45.45,0,0,1,7,16.18a3.1,3.1,0,0,1,2.59-1.51h0a3.11,3.11,0,0,1,2.59,1.51.67.67,0,0,1,.07.18Z"/></g></g></svg>