<svg xmlns="http://www.w3.org/2000/svg" viewBox="0 0 22.99 27.7"><defs><style>.cls-1{fill:#e1dbf1;}.cls-2{fill:#bde7ef;}.cls-3{fill:#daf2da;}.cls-4{fill:#fafcbf;}.cls-5{fill:#545454;}.cls-6{fill:#fbd3dd;}</style></defs><title>アセット 16</title><g id="レイヤー_2" data-name="レイヤー 2"><g id="header"><rect class="cls-1" x="0.41" y="9.82" width="4.97" height="6.8"/><rect class="cls-2" x="5.38" y="9.82" width="8.98" height="6.8"/><rect class="cls-3" x="14.36" y="9.82" width="8.13" height="6.8"/><rect class="cls-4" x="0.41" y="16.5" width="4.97" height="10.69"/><rect class="cls-3" x="5.38" y="16.5" width="8.98" height="10.69"/><rect class="cls-3" x="14.36" y="16.5" width="8.13" height="10.69"/><path class="cls-5" d="M23,27.7H0V9.32H23Zm-22-1H22V10.32H1Z"/><rect class="cls-5" x="0.5" y="16.12" width="21.99" height="1"/><rect class="cls-5" x="4.76" y="9.82" width="1" height="17.37"/><rect class="cls-5" x="13.86" y="9.94" width="1" height="17.26"/><path class="cls-6" d="M14.36.5C11.3.5,8.83,3.26,8.83,6.66s4.35,8.79,5.53,8.79,5.53-5.4,5.53-8.79S17.41.5,14.36.5Z"/><path class="cls-5" d="M14.36,16c-1.63,0-6-5.76-6-9.29S11,0,14.36,0s6,3,6,6.66S16,16,14.36,16ZM14.36,1c-2.78,0-5,2.54-5,5.66s4.18,8.19,5,8.29c.84-.1,5-5,5-8.29S17.13,1,14.36,1Z"/></g></g></svg>