<svg xmlns="http://www.w3.org/2000/svg" viewBox="0 0 18.02 26.01"><defs><style>.cls-1{fill:#caebf0;}.cls-2{fill:#545454;}.cls-3{fill:#daf2da;}.cls-4{fill:#fbd3dd;}</style></defs><title>アセット 13</title><g id="レイヤー_2" data-name="レイヤー 2"><g id="header"><rect class="cls-1" x="12.79" y="12.82" width="3.89" height="12.69"/><path class="cls-2" d="M16.68,26H12.79a.5.5,0,0,1-.5-.5V12.82a.5.5,0,0,1,.5-.5h3.89a.5.5,0,0,1,.5.5V25.51A.5.5,0,0,1,16.68,26Zm-3.39-1h2.89V13.32H13.29Z"/><path class="cls-2" d="M14.73,13.32a.5.5,0,0,1-.5-.5V6.53a.5.5,0,0,1,.5-.5.5.5,0,0,1,.5.5v6.29A.5.5,0,0,1,14.73,13.32Z"/><circle class="cls-3" cx="14.73" cy="3.28" r="2.78"/><path class="cls-2" d="M14.73,6.56A3.28,3.28,0,1,1,18,3.28,3.28,3.28,0,0,1,14.73,6.56Zm0-5.56A2.28,2.28,0,1,0,17,3.28,2.29,2.29,0,0,0,14.73,1Z"/><path class="cls-2" d="M3.27,13.32a.5.5,0,0,1-.5-.5V7.42l-2.64-3a.5.5,0,0,1,0-.65L2.89.43a.49.49,0,0,1,.7-.07.5.5,0,0,1,.07.7L1.16,4.11,3.65,6.9a.5.5,0,0,1,.12.33v5.59A.5.5,0,0,1,3.27,13.32Z"/><rect class="cls-4" x="1.43" y="12.82" width="3.89" height="12.69"/><path class="cls-2" d="M5.32,26H1.43a.5.5,0,0,1-.5-.5V12.82a.5.5,0,0,1,.5-.5H5.32a.5.5,0,0,1,.5.5V25.51A.5.5,0,0,1,5.32,26ZM1.93,25H4.82V13.32H1.93Z"/></g></g></svg>