<?xml version="1.0" encoding="utf-8"?>
<!-- Generator: Adobe Illustrator 23.0.1, SVG Export Plug-In . SVG Version: 6.00 Build 0)  -->
<svg version="1.1" id="レイヤー_1" xmlns="http://www.w3.org/2000/svg" xmlns:xlink="http://www.w3.org/1999/xlink" x="0px"
	 y="0px" viewBox="0 0 6.7 8.9" style="enable-background:new 0 0 6.7 8.9;" xml:space="preserve">
<style type="text/css">
	.st0{fill:#FFFFFF;}
	.st1{fill:#F20000;}
</style>
<path class="st0" d="M3.3,1c1.3,0,2.4,1.2,2.4,2.7c0,0.9-0.7,2.1-1.1,2.6L4.6,6.4C4.1,7,3.7,7.6,3.4,7.8C3.2,7.6,2.8,7.3,2.2,6.4
	l0-0.1L2.1,6.3C1.7,5.9,1,4.7,1,3.7C1,2.2,2.1,1,3.3,1 M3.3,0C1.5,0,0,1.7,0,3.7C0,5,0.9,6.5,1.4,7c0.5,0.7,1.4,1.9,2,1.9
	c0.5,0,1.5-1.2,2-1.9c0.3-0.5,1.3-2,1.3-3.3C6.7,1.7,5.2,0,3.3,0L3.3,0z"/>
<g>
	<path class="st1" d="M3.3,3.7c-0.2,0-0.5-0.2-0.5-0.5C2.9,3,3.1,2.7,3.3,2.7c0.2,0,0.5,0.2,0.5,0.5C3.8,3.4,3.6,3.7,3.3,3.7z"/>
	<path class="st0" d="M3.3,2.2c-0.5,0-0.9,0.5-1,1c0,0.6,0.5,1,1,1c0.6,0,1-0.5,1-1C4.3,2.6,3.8,2.2,3.3,2.2L3.3,2.2z"/>
</g>
</svg>
