<svg xmlns="http://www.w3.org/2000/svg" viewBox="0 0 88.99 23.47"><defs><style>.cls-1{fill:#0096d6;}</style></defs><title>アセット 31</title><g id="レイヤー_2" data-name="レイヤー 2"><g id="contents"><path class="cls-1" d="M31.21,23.47a4.65,4.65,0,0,1-4.65-4.65h2.71a2,2,0,0,0,1.94,1.94h11.1a2,2,0,0,0,1.94-1.94H47a4.65,4.65,0,0,1-4.65,4.65H31.21Z"/><polygon class="cls-1" points="26.56 3.52 26.56 0.75 29.27 0.75 29.27 3.52 26.56 3.52"/><path class="cls-1" d="M53.55,23.47a4.65,4.65,0,0,1-4.64-4.65h2.71a1.94,1.94,0,0,0,1.93,1.94h7.16a1.94,1.94,0,0,0,1.94-1.94h2.71a4.65,4.65,0,0,1-4.65,4.65H53.55Z"/><polygon class="cls-1" points="48.91 3.52 48.91 0.75 51.62 0.75 51.62 3.52 48.91 3.52"/><path class="cls-1" d="M71.52,23.47a4.65,4.65,0,0,1-4.64-4.65h2.71a1.94,1.94,0,0,0,1.93,1.94H82.3a2,2,0,0,0,1.94-1.94h2.7a4.65,4.65,0,0,1-4.64,4.65H71.52Z"/><path class="cls-1" d="M66.88,3.52V.75h2.71V3.52H66.88Z"/><polygon class="cls-1" points="5.42 3.52 5.42 0.75 8.13 0.75 8.13 3.52 5.42 3.52"/><path d="M9.49,4.82a4.07,4.07,0,0,0-2.71,1,4,4,0,0,0-2.71-1A4.09,4.09,0,0,0,1,6.17H0V8.88H0v7.86H2.71V8.88h0a1.36,1.36,0,0,1,2.72,0v7.86H8.14V8.88a1.36,1.36,0,0,1,2.71,0v7.86h2.7V8.88A4.06,4.06,0,0,0,9.49,4.82Z"/><path d="M26.55,12.85V9.47A4.65,4.65,0,0,1,31.2,4.82h0a4.65,4.65,0,0,1,4.65,4.65h0v3.38A4.65,4.65,0,0,1,31.2,17.5h0a4.65,4.65,0,0,1-4.65-4.65Zm2.71-3.39v3.39a2,2,0,0,0,1.94,1.94h0a2,2,0,0,0,1.94-1.94h0V9.46A1.93,1.93,0,0,0,31.2,7.53h0a1.94,1.94,0,0,0-1.94,1.93Z"/><path d="M42.21,17.5l-4.55-.68V.75h2.71V5.24a4.66,4.66,0,0,1,1.94-.42h0A4.65,4.65,0,0,1,47,9.46h0v3.39a4.65,4.65,0,0,1-4.65,4.65h-.1Zm-1.84-3,2,.31a1.94,1.94,0,0,0,1.85-1.94h0V9.47A2,2,0,0,0,42.3,7.53h0a2,2,0,0,0-1.94,1.94h0v5Z"/><path d="M53.56,4.82a4.66,4.66,0,0,0-1.94.42V4.82H48.91V9.46h0v7.28h2.71V9.46h0a2,2,0,0,1,2.89-1.69l1.32-2.36A4.6,4.6,0,0,0,53.56,4.82Z"/><path d="M66.91,12.85V9.47a4.65,4.65,0,0,1,4.65-4.65h0a4.65,4.65,0,0,1,4.65,4.65H73.5a2,2,0,0,0-1.94-1.94h0a2,2,0,0,0-1.94,1.94h0v3.38a1.94,1.94,0,0,0,1.94,1.94h0a1.94,1.94,0,0,0,1.94-1.94h2.71a4.65,4.65,0,0,1-4.65,4.65h0a4.65,4.65,0,0,1-4.65-4.65Z"/><path d="M77.63,12.85V9.47a4.65,4.65,0,0,1,4.64-4.65h0a4.65,4.65,0,0,1,4.65,4.65h0a1.34,1.34,0,0,1-.82,1.24h0l-5.74,2.44a1.94,1.94,0,0,0,1.91,1.64h0a1.94,1.94,0,0,0,1.94-1.94h2.71a4.65,4.65,0,0,1-4.65,4.65h0a4.64,4.64,0,0,1-4.64-4.65Zm2.7-3.39v.76L84,8.64a2,2,0,0,0-1.76-1.11h0a1.94,1.94,0,0,0-1.94,1.93Z"/><path d="M56.07,12.85V9.47a4.65,4.65,0,0,1,4.64-4.65h.09l4.56.59V16.75h-2.1a4.63,4.63,0,0,1-2.55.76h0a4.66,4.66,0,0,1-4.64-4.66Zm2.71-3.39v3.39a2,2,0,0,0,1.94,1.94h0a1.94,1.94,0,0,0,1.94-1.92h0V7.79l-2-.26a1.94,1.94,0,0,0-1.87,1.93Z"/><path d="M22.13,5.22v7.63a1.94,1.94,0,1,1-3.88,0V5.22H15.54v7.63a4.65,4.65,0,0,0,4.65,4.65,4.7,4.7,0,0,0,1.94-.43v1.74a2,2,0,0,1-1.94,1.94H10.07a2,2,0,0,1-1.94-1.94H5.42a4.65,4.65,0,0,0,4.65,4.65H20.19a4.65,4.65,0,0,0,4.65-4.65V5.22Z"/><path class="cls-1" d="M86.65,4.69A2.35,2.35,0,1,1,89,2.34,2.35,2.35,0,0,1,86.65,4.69Zm0-4.17a1.76,1.76,0,0,0-1.79,1.82,1.79,1.79,0,1,0,3.57,0A1.76,1.76,0,0,0,86.65.52Zm.42,3.06-.45-1h-.27v1H85.8V1.09h1a.79.79,0,0,1,.83.78.71.71,0,0,1-.46.66l.53,1.05Zm-.33-2h-.39V2.2h.39a.32.32,0,0,0,.34-.33A.33.33,0,0,0,86.74,1.55Z"/></g></g></svg>